<svg width="557" height="633" viewBox="0 0 557 633" fill="none" xmlns="http://www.w3.org/2000/svg">
<g opacity="0.09" clip-path="url(#clip0_51_264)">
<path d="M195.152 510.259C194.02 508.351 189.121 510.394 188.22 508.663C187.323 506.938 191.874 504.309 194.475 498.306C194.944 497.223 197.899 490.4 195.711 488.294C191.564 484.304 172.588 500.772 165.947 495.383C164.49 494.2 163.472 491.839 159.061 488.006C157.306 486.481 156.245 485.792 155.218 486.048C153.761 486.412 153.646 488.36 152.083 492.19C149.74 497.935 148.354 497.588 146.989 502.171C145.975 505.573 146.207 507.552 145.014 507.937C143.326 508.482 141.773 504.873 139.634 505.197C137.452 505.526 136.132 509.728 135.715 512.874C134.933 518.778 137.104 522.673 138.307 526.77C139.614 531.221 140.39 537.991 137.371 547.575L107.491 631.674C114.087 614.417 133.188 567.111 141.214 549.532C143.53 544.457 146.089 539.31 151.341 537.278C156.399 535.323 163.344 536.49 172.199 534.359C173.233 534.111 176.103 533.381 176.464 531.695C176.762 530.301 175.074 529.523 175.334 528.217C175.682 526.466 179.001 526.445 183.08 524.424C185.956 523 187.748 521.305 189.289 519.848C189.754 519.409 196.66 512.798 195.152 510.259H195.152Z" fill="#F2F2F2"/>
<path d="M77.5957 554.532C76.3317 554.537 75.9217 557.529 74.8113 557.471C73.7048 557.413 73.7269 554.423 71.5274 551.416C71.1308 550.873 68.6312 547.456 66.9655 547.921C63.8083 548.803 66.4243 562.858 61.8604 564.559C60.8588 564.933 59.4049 564.751 56.2489 565.807C54.9933 566.227 54.3489 566.549 54.1784 567.126C53.9366 567.946 54.8604 568.565 56.2915 570.436C58.4378 573.242 57.8675 573.821 59.7253 575.813C61.1045 577.292 62.1432 577.749 61.9884 578.445C61.7694 579.43 59.5481 579.15 59.0898 580.292C58.6221 581.457 60.3058 583.317 61.7311 584.429C64.406 586.515 66.9462 586.575 69.3058 587.167C71.8701 587.811 75.4202 589.384 79.2578 593.629L111.956 632.545C105.381 624.331 87.6495 601.317 81.3282 592.31C79.5034 589.71 77.7126 586.97 78.2301 583.809C78.7283 580.765 81.306 577.696 82.8139 572.74C82.99 572.161 83.4597 570.544 82.7355 569.88C82.1367 569.332 81.2674 569.935 80.7008 569.431C79.9407 568.755 80.8879 567.121 81.0722 564.538C81.2021 562.717 80.8867 561.35 80.6154 560.174C80.5336 559.819 79.2782 554.526 77.5957 554.532V554.532H77.5957Z" fill="#F2F2F2"/>
<path d="M102.811 560.187L102.05 553.396L102.398 552.881C104.008 550.501 104.828 548.176 104.838 545.969C104.84 545.618 104.823 545.267 104.807 544.91C104.741 543.493 104.659 541.733 105.578 539.68C106.094 538.536 107.541 535.886 109.717 536.214C110.303 536.296 110.746 536.565 111.083 536.88C111.132 536.801 111.183 536.722 111.237 536.637C111.915 535.604 112.452 535.162 112.969 534.735C113.366 534.407 113.776 534.07 114.419 533.27C114.702 532.919 114.922 532.61 115.107 532.351C115.67 531.568 116.405 530.633 117.702 530.65C119.087 530.715 119.812 531.86 120.293 532.617C121.152 533.968 121.54 534.942 121.798 535.588C121.892 535.824 121.998 536.089 122.053 536.171C122.499 536.827 126.128 536.214 127.495 535.991C130.565 535.48 133.223 535.037 134.317 536.971C135.102 538.355 134.519 540.185 132.533 542.556C131.914 543.293 131.256 543.854 130.672 544.293C131.156 544.582 131.589 545.025 131.765 545.72C132.179 547.366 130.762 549.015 127.557 550.628C126.761 551.032 125.689 551.57 124.188 551.829C123.48 551.95 122.844 551.979 122.299 551.996C122.287 552.311 122.213 552.652 122.021 553.002C121.458 554.035 120.287 554.527 118.521 554.409C116.578 554.307 114.977 553.937 113.566 553.612C112.333 553.33 111.272 553.091 110.438 553.147C108.892 553.271 107.7 554.507 106.302 556.111L102.811 560.187H102.811H102.811Z" fill="#F2F2F2"/>
<path d="M106.344 519.755L99.9613 522.213L99.3746 522.007C96.6611 521.055 94.2019 520.852 92.0626 521.402C91.7225 521.49 91.3869 521.595 91.045 521.701C89.69 522.124 88.0058 522.65 85.7851 522.282C84.5463 522.075 81.6137 521.348 81.3792 519.162C81.31 518.575 81.458 518.079 81.6774 517.674C81.5887 517.646 81.4996 517.617 81.4033 517.586C80.2313 517.193 79.6665 516.787 79.1226 516.395C78.7044 516.095 78.2733 515.784 77.3354 515.365C76.9241 515.181 76.5698 515.047 76.2719 514.934C75.3703 514.588 74.2789 514.115 73.966 512.858C73.6781 511.503 74.6022 510.512 75.2137 509.855C76.3041 508.683 77.1484 508.06 77.7085 507.647C77.9134 507.497 78.1435 507.326 78.2092 507.253C78.7309 506.656 77.2168 503.305 76.6541 502.04C75.38 499.203 74.2774 496.748 75.873 495.199C77.0139 494.09 78.9333 494.189 81.7326 495.507C82.6039 495.917 83.3138 496.411 83.8875 496.864C84.0441 496.323 84.3628 495.792 84.9914 495.446C86.4803 494.629 88.4366 495.579 90.8118 498.267C91.4042 498.934 92.1968 499.833 92.8285 501.219C93.1254 501.871 93.3155 502.479 93.4696 503.002C93.7773 502.933 94.1262 502.918 94.5147 503.014C95.6576 503.296 96.4311 504.304 96.7647 506.04C97.1592 507.944 97.2063 509.584 97.25 511.03C97.2895 512.292 97.3271 513.379 97.5925 514.171C98.1053 515.633 99.6046 516.471 101.512 517.415L106.344 519.755L106.344 519.755V519.755Z" fill="#F2F2F2"/>
<path d="M102.811 499.749L102.05 492.958L102.398 492.443C104.008 490.063 104.828 487.738 104.838 485.531C104.84 485.18 104.823 484.829 104.807 484.472C104.741 483.055 104.659 481.295 105.578 479.242C106.094 478.098 107.541 475.448 109.717 475.776C110.303 475.858 110.746 476.127 111.083 476.442C111.132 476.363 111.183 476.284 111.237 476.199C111.915 475.166 112.452 474.724 112.969 474.297C113.366 473.969 113.776 473.632 114.419 472.832C114.702 472.481 114.922 472.172 115.107 471.913C115.67 471.13 116.405 470.195 117.702 470.212C119.087 470.277 119.812 471.422 120.293 472.179C121.152 473.53 121.54 474.504 121.798 475.15C121.892 475.386 121.998 475.651 122.053 475.733C122.499 476.389 126.128 475.776 127.495 475.553C130.565 475.042 133.223 474.599 134.317 476.533C135.102 477.917 134.519 479.747 132.533 482.118C131.914 482.855 131.256 483.416 130.672 483.855C131.156 484.144 131.589 484.587 131.765 485.282C132.179 486.928 130.762 488.577 127.557 490.19C126.761 490.594 125.689 491.132 124.188 491.391C123.48 491.512 122.844 491.541 122.299 491.558C122.287 491.873 122.213 492.214 122.021 492.564C121.458 493.597 120.287 494.089 118.521 493.971C116.578 493.869 114.977 493.499 113.566 493.174C112.333 492.892 111.272 492.653 110.438 492.709C108.892 492.833 107.7 494.069 106.302 495.673L102.811 499.749H102.811H102.811Z" fill="#F2F2F2"/>
<path d="M109.767 631.563L108.342 630.671L107.997 629.029L108.342 630.671L106.681 630.862C106.655 630.707 106.565 630.353 106.428 629.799C105.685 626.763 103.418 617.523 101.528 602.971C100.208 592.812 99.4615 582.369 99.3072 571.925C99.153 561.465 99.6486 553.547 100.046 547.182C100.346 542.382 100.71 537.811 101.068 533.358C102.02 521.462 102.918 510.225 102.25 497.784C102.102 495.007 101.792 489.226 98.4111 483.075C96.4499 479.507 93.7485 476.34 90.3808 473.664L92.4749 471.035C96.1922 473.992 99.1808 477.501 101.359 481.462C105.107 488.282 105.445 494.581 105.608 497.607C106.287 510.268 105.38 521.613 104.418 533.624C104.063 538.06 103.699 542.611 103.4 547.392C103.006 553.698 102.516 561.547 102.668 571.873C102.819 582.192 103.558 592.507 104.859 602.538C106.727 616.906 108.961 626.009 109.694 628.999C110.085 630.596 110.167 630.93 109.767 631.563V631.563H109.767Z" fill="#F2F2F2"/>
<path d="M84.2164 479C84.0786 479 83.9391 478.996 83.7979 478.986C80.9357 478.832 78.2852 477.121 75.9186 473.901C74.8091 472.386 74.2413 470.658 73.1088 467.212C72.9332 466.68 72.0798 463.985 71.5612 460.277C71.2214 457.853 71.2641 456.84 71.745 455.945C72.2784 454.948 73.1417 454.253 74.1132 453.784C74.0706 453.463 74.105 453.132 74.2446 452.794C74.8173 451.394 76.3403 451.577 77.1642 451.666C77.5811 451.718 78.1014 451.787 78.6627 451.758C79.5456 451.715 80.0199 451.453 80.7388 451.059C81.4264 450.682 82.2815 450.213 83.5501 449.954C86.0513 449.433 88.1471 450.141 88.838 450.374C92.4733 451.584 94.2655 454.407 96.3399 457.676C96.7535 458.332 98.1731 460.719 99.1102 463.992C99.7864 466.352 99.6912 467.402 99.4877 468.182C99.0741 469.786 98.0976 470.704 95.6178 472.73C93.028 474.852 91.7282 475.914 90.6122 476.56C88.0142 478.058 86.3828 478.999 84.2164 478.999V479H84.2164Z" fill="#F2F2F2"/>
<path d="M241.663 625.817L250.465 625.816L254.652 591.9L241.661 591.901L241.663 625.817Z" fill="#FFB6B6"/>
<path d="M271.819 625.617C272.093 626.078 272.238 627.566 272.238 628.102C272.238 629.751 270.901 631.087 269.251 631.087H241.992C240.866 631.087 239.954 630.175 239.954 629.051V627.917C239.954 627.917 238.605 624.51 241.382 620.31C241.382 620.31 244.832 623.598 249.988 618.448L251.508 615.696L262.514 623.737L268.615 624.487C269.949 624.651 271.133 624.462 271.819 625.617H271.819H271.819Z" fill="#2F2E41"/>
<path d="M214.837 625.817L223.639 625.816L227.826 591.9L214.835 591.901L214.837 625.817Z" fill="#FFB6B6"/>
<path d="M244.994 625.617C245.268 626.078 245.413 627.566 245.413 628.102C245.413 629.751 244.075 631.087 242.425 631.087H215.166C214.041 631.087 213.128 630.175 213.128 629.051V627.917C213.128 627.917 211.78 624.51 214.556 620.31C214.556 620.31 218.006 623.598 223.162 618.448L224.683 615.696L235.689 623.737L241.789 624.487C243.124 624.651 244.307 624.462 244.994 625.617H244.994H244.994Z" fill="#2F2E41"/>
<path d="M251.831 479.35L261.22 515.67L256.525 608.939L234.394 610.419L233.053 556.728L230.37 611.998L207.569 607.261L206.227 485.666L251.831 479.35Z" fill="#2F2E41"/>
<path d="M160.941 357.063C157.911 351.752 152.713 349.009 149.33 350.936C145.947 352.862 145.661 358.728 148.693 364.04C149.874 366.178 151.551 368.003 153.584 369.361L166.704 391.7L177.066 385.326L163.032 363.981C162.898 361.541 162.181 359.169 160.941 357.063Z" fill="#FFB6B6"/>
<path d="M220.566 435.922C220.566 435.922 208.131 453.043 200.526 446.925C192.921 440.807 150.901 372.034 150.901 372.034L167.577 363.105L220.566 435.922H220.566Z" fill="#20B1F0"/>
<path d="M208.91 415.035L225.005 390.917L241.101 397.617L237.077 419.055L208.91 415.035Z" fill="#FFB6B6"/>
<path d="M210.251 409.676L238.418 408.336L257.196 413.695L261.22 512.847L204.886 507.487V455.2L196.838 428.434L210.251 409.676Z" fill="#20B1F0"/>
<path d="M256.737 476.558C255.747 473.674 255.353 470.63 255.608 467.592C256.328 459.019 256.464 442.222 247.717 434.634L242.777 429.287C242.674 429.176 242.558 429.081 242.454 428.972L250.628 409.777L245.69 407.68L238.103 425.495C234.738 423.45 230.856 422.317 226.841 422.317C222.204 422.317 217.771 423.828 214.108 426.487L209.481 409.552L204.304 410.964L210.09 430.278C209.88 430.534 209.65 430.77 209.451 431.037L206.624 434.827C205.936 435.749 205.176 436.606 204.353 437.411C202.618 439.109 199.233 443.23 199.2 449.576C199.189 451.746 198.742 453.892 198.08 455.959L194.72 466.448C194.405 467.433 194.158 468.435 193.989 469.455C192.508 478.437 187.38 520.75 222.426 519.903C255.095 519.113 257.245 499.242 257.055 492.641C257.014 491.209 257.142 489.788 257.41 488.381C257.9 485.799 258.341 481.231 256.737 476.558L256.737 476.558Z" fill="#3F3D56"/>
<path d="M404.322 48.2578L407.377 95.377L368.962 104.182L371.638 66.0844L404.322 48.2578Z" fill="#FFB6B6"/>
<path d="M407.247 620.912L389.931 620.911L381.694 554.19L407.25 554.192L407.247 620.912Z" fill="#FFB6B6"/>
<path d="M347.921 620.52C347.381 621.427 347.097 624.355 347.097 625.41C347.097 628.652 349.728 631.281 352.974 631.281H406.599C408.813 631.281 410.608 629.487 410.608 627.275V625.045C410.608 625.045 413.261 618.342 407.8 610.08C407.8 610.08 401.012 616.549 390.868 606.417L387.877 601.004L366.226 616.822L354.225 618.298C351.599 618.621 349.271 618.248 347.921 620.52H347.921H347.921Z" fill="#2F2E41"/>
<path d="M454.192 620.912L436.876 620.911L428.638 554.19L454.195 554.192L454.192 620.912Z" fill="#FFB6B6"/>
<path d="M394.865 620.52C394.326 621.427 394.042 624.355 394.042 625.41C394.042 628.652 396.673 631.281 399.919 631.281H453.544C455.758 631.281 457.553 629.487 457.553 627.275V625.045C457.553 625.045 460.206 618.342 454.744 610.08C454.744 610.08 447.956 616.549 437.813 606.417L434.822 601.004L413.171 616.822L401.17 618.298C398.544 618.621 396.216 618.248 394.866 620.52H394.865H394.865Z" fill="#2F2E41"/>
<path d="M465.094 303.825C465.094 303.825 479.848 322.584 477.166 333.303C474.483 344.022 455.705 590.56 455.705 590.56L428.88 589.22L412.784 368.14L408.644 590.56L383.276 589.22L351.085 313.204L465.094 303.825Z" fill="#2F2E41"/>
<path d="M310.006 363.636C307.469 373.347 300.397 379.912 294.211 378.298C288.024 376.685 285.067 367.505 287.605 357.791C288.566 353.896 290.446 350.288 293.089 347.268L304.356 306.256L323.51 311.948L310.369 351.775C311.198 355.701 311.073 359.768 310.006 363.636Z" fill="#FFB6B6"/>
<path d="M373.117 87.3598C394.284 87.3598 411.443 70.2187 411.443 49.074C411.443 27.9293 394.284 10.7881 373.117 10.7881C351.951 10.7881 334.792 27.9293 334.792 49.074C334.792 70.2187 351.951 87.3598 373.117 87.3598Z" fill="#FFB6B6"/>
<path d="M368.522 97.4831L408.76 89.4438L453.023 112.222L462.412 258.269L474.483 313.204L349.744 314.544L355.109 240.851L347.062 124.281L368.522 97.4831Z" fill="#E6E6E6"/>
<path d="M359.133 128.301C359.133 128.301 337.673 121.601 329.625 133.66C321.577 145.719 306.823 254.25 306.823 254.25L292.069 335.983L318.895 340.002L363.157 196.635L359.133 128.301Z" fill="#E6E6E6"/>
<path d="M554.334 316.662C558.706 325.699 557.583 335.277 551.826 338.056C546.069 340.835 537.859 335.762 533.486 326.722C531.69 323.135 530.779 319.17 530.831 315.159L512.788 276.639L531.064 268.566L546.911 307.398C550.091 309.849 552.636 313.026 554.334 316.662Z" fill="#FFB6B6"/>
<path d="M436.224 113.611C436.224 113.611 455.497 102.043 466.165 111.865C476.833 121.688 516.8 223.678 516.8 223.678L550.438 299.628L525.319 309.855L448.45 180.964L436.224 113.611V113.611Z" fill="#E6E6E6"/>
<path d="M528.99 631.405C528.99 632.29 528.279 633 527.394 633H-48.4039C-49.2891 633 -50 632.29 -50 631.405C-50 630.977 -49.839 630.602 -49.5708 630.32H70.7688C73.3306 630.32 75.8388 630.146 78.3068 629.811H527.394C528.279 629.811 528.99 630.521 528.99 631.405Z" fill="#3F3D56"/>
<path d="M293.236 367.858C295.63 362.233 300.476 358.907 304.059 360.43C307.642 361.952 308.606 367.745 306.211 373.372C305.285 375.633 303.83 377.639 301.969 379.223L291.526 402.929L280.494 397.796L291.961 374.971C291.811 372.533 292.249 370.093 293.236 367.858Z" fill="#FFB6B6"/>
<path d="M223.485 408.724C237.11 408.724 248.155 397.691 248.155 384.08C248.155 370.47 237.11 359.436 223.485 359.436C209.86 359.436 198.815 370.47 198.815 384.08C198.815 397.691 209.86 408.724 223.485 408.724Z" fill="#FFB6B6"/>
<path d="M254.513 413.695L278.656 404.316L286.704 376.179L304.141 382.878L290.728 423.075L254.513 436.895V413.695Z" fill="#20B1F0"/>
<path d="M220.241 411.482L234.954 399.523C234.954 399.523 233.562 381.6 238.851 379.988C244.141 378.376 249.657 371.938 249.657 371.938C249.657 371.938 240.902 352.182 225.493 355.18C210.083 358.178 213.599 353.618 204.102 358.642C194.606 363.666 192.379 370.369 193.534 377.492C194.689 384.614 191.251 402.31 202.753 403.222C214.255 404.133 220.241 411.482 220.241 411.482Z" fill="#2F2E41"/>
<path d="M349.904 57.6456C347.108 52.5506 348.56 50.1183 346.036 48.1266C346.036 48.1265 345.021 47.325 337.376 46.3042C336.646 33.809 334.62 32.1391 334.62 32.1391C332.285 30.2145 328.571 30.4828 326.203 31.357C321.196 33.2059 321.37 38.0767 318.044 38.7408C313.451 39.6582 325.974 31.8138 325.827 23.516C325.708 16.7472 330.561 10.5698 332.252 11.052C333.928 11.5301 338.422 6.65428 340.618 6.91025C342.117 7.08506 348.475 4.90751 350.112 5.24802C351.899 5.61991 357.602 9.19775 357.907 8.50863C360.025 3.72003 359.627 2.31279 361.203 1.02023C363.994 -1.27017 368.094 0.807161 374.67 2.27155C388.2 5.28453 390.949 0.967853 397.717 4.58259C401.136 6.40858 403.768 10.8072 408.891 19.5298C416.055 31.7283 419.638 37.8275 419.125 44.567C418.602 51.4401 415.306 50.7381 413.029 60.7933C410.495 71.9863 413.541 77.44 409.467 80.8169C406.318 83.4269 380.206 83.6278 377.286 80.8836C372.286 76.1852 380.101 66.4345 374.792 58.4313C371.533 53.5186 364.4 50.8792 360.874 52.8976C356.888 55.1799 358.363 62.9304 355.648 63.4375C353.322 63.8717 350.392 58.5334 349.904 57.6455V57.6456Z" fill="#2F2E41"/>
<path d="M164.149 369.113C169.488 364.608 168.07 354.162 160.983 345.781C157.88 342.112 154.205 339.448 150.606 337.989L146.47 333.22L93.0511 266.358C93.0511 266.358 63.4687 199.844 54.7361 192.658C46.0036 185.472 35.7294 189.213 35.7294 189.213L27.713 199.121L77.6668 291.991L128.791 343.387L135.693 350.575C136.531 354.364 138.547 358.428 141.649 362.097C148.737 370.478 158.81 373.619 164.149 369.113Z" fill="#FFB6B6"/>
<path d="M63.3136 205.025L76.7003 224.637L95.9183 253.05L61.387 264.983L30.8984 212.722L63.3136 205.025Z" fill="#E6E6E6"/>
<path d="M76.905 138.277L67.2096 175.203L30.2459 167.939C30.2459 167.939 44.789 141.304 41.1532 129.197L76.905 138.277H76.905Z" fill="#FFB6B6"/>
<path d="M37.8851 618.93L60.1443 618.927L70.7332 533.159L37.8806 533.161L37.8851 618.93Z" fill="#FFB6B6"/>
<path d="M114.148 618.425C114.841 619.591 115.207 623.355 115.207 624.711C115.207 628.879 111.825 632.258 107.652 632.258H38.7176C35.8712 632.258 33.5637 629.953 33.5637 627.109V624.242C33.5637 624.242 30.1535 615.625 37.1744 605.005C37.1744 605.005 45.9003 613.321 58.9391 600.296L62.7841 593.337L90.6168 613.672L106.044 615.569C109.419 615.984 112.412 615.504 114.148 618.425H114.148Z" fill="#2F2E41"/>
<path d="M99.6913 370.713L69.0189 579.218H30.5363L35.6533 460.198L38.3465 397.617L30.5363 367.828C30.5363 367.828 26.9753 361.207 23.9753 353.181C20.5939 344.123 17.9232 333.265 21.8881 328.115C23.347 326.217 27.1399 324.812 32.2943 323.766C35.4438 323.123 39.1096 322.623 43.0671 322.234C65.8245 319.984 98.1951 321.389 98.1951 321.389L99.018 348.517L99.4744 363.666L99.6913 370.713H99.6913Z" fill="#2F2E41"/>
<path d="M-1.32538 608.733L20.6975 611.965L43.6624 528.647L11.1588 523.875L-1.32538 608.733Z" fill="#FFB6B6"/>
<path d="M74.2 619.315C74.7159 620.57 74.5297 624.346 74.3323 625.688C73.7254 629.811 69.887 632.663 65.7589 632.057L-2.44232 622.04C-5.25843 621.627 -7.20584 619.011 -6.79179 616.197L-6.37433 613.361C-6.37433 613.361 -8.49351 604.34 -0.000912189 594.853C-0.000912189 594.853 7.42134 604.348 22.218 593.356L27.0354 587.031L51.6112 611.193L66.5982 615.311C69.877 616.212 72.9074 616.173 74.1997 619.315L74.2 619.315H74.2Z" fill="#2F2E41"/>
<path d="M100.174 335.94L95.967 372.133L73.0241 448.402L35.2563 573.966L-2.81281 568.377L31.3538 389.844L27.9708 359.23C27.9708 359.23 26.869 356.187 25.6061 351.732C23.0993 342.918 19.9553 328.566 23.4143 321.244C23.8813 320.249 24.4676 319.386 25.193 318.686C26.5535 317.368 29.3186 316.568 33.0232 316.143C48.5077 314.395 80.3973 319.395 94.5873 321.85L100.174 335.94L100.174 335.94Z" fill="#2F2E41"/>
<path d="M70.8454 164.306L112.657 216.97L105.151 271.877L98.7197 327.746L22.9744 316.245C22.9744 316.245 39.3354 276.898 41.1532 275.082C42.9711 273.266 47.5373 277.751 44.3453 271.877C41.1532 266.002 37.5175 266.002 40.5473 262.976C43.5771 259.949 16.9147 220.602 16.9147 199.416C16.9147 178.229 29.6399 161.28 29.6399 161.28L70.8454 164.306L70.8454 164.306Z" fill="#E6E6E6"/>
<path d="M61.0901 145.25C76.6459 145.25 89.2564 132.653 89.2564 117.114C89.2564 101.574 76.6459 88.9766 61.0901 88.9766C45.5343 88.9766 32.9239 101.574 32.9239 117.114C32.9239 132.653 45.5343 145.25 61.0901 145.25Z" fill="#FFB6B6"/>
<path d="M59.7739 170.911C59.7739 170.911 63.9886 137.596 64.7346 127.908C65.4806 118.22 79.1702 103.094 79.1702 103.094L88.8684 110.919C88.8684 110.919 97.0745 110.919 91.4794 98.9954C85.8843 87.0716 75.4401 85.2085 75.4401 85.2085C75.4401 85.2085 74.3211 69.5585 54.9248 71.4216C35.5285 73.2847 26.9493 88.9347 26.9493 88.9347C26.9493 88.9347 25.8303 69.1859 13.5211 83.718C1.21189 98.2501 -5.87524 104.212 7.17998 109.056C20.2352 113.9 29.9334 110.174 29.9334 110.174C29.9334 110.174 17.2511 112.782 19.4892 121.725C21.7272 130.668 -9.97831 171.283 4.56893 175.755C19.1162 180.226 51.5677 191.032 55.2978 183.952C59.0278 176.873 59.7738 170.911 59.7738 170.911H59.7739Z" fill="#2F2E41"/>
<path d="M175.881 371.904C181.257 367.443 179.928 356.986 172.911 348.546C169.839 344.851 166.187 342.156 162.6 340.667L158.504 335.864L105.648 268.557C105.648 268.557 76.6246 201.797 67.9525 194.538C59.2806 187.28 48.9754 190.935 48.9754 190.935L40.8762 200.775L90.0491 294.06L140.74 345.883L147.581 353.128C148.388 356.924 150.369 361.005 153.441 364.699C160.458 373.139 170.505 376.365 175.881 371.904L175.881 371.904Z" fill="#FFB6B6"/>
<path d="M37.8078 185.76C37.8078 185.76 50.7471 252.837 65.471 262.725L94.8118 239.871C94.8118 239.871 97.3793 239.76 92.6006 234.368C87.8218 228.976 89.0454 217.396 89.0454 217.396C89.0454 217.396 91.1956 220.175 86.5167 216.317C81.8377 212.459 86.1936 185.926 86.1936 185.926L37.8078 185.76Z" fill="#E6E6E6"/>
<path d="M251.51 462.502C250.891 462.502 250.335 462.073 250.2 461.444L248.725 454.6C246.557 444.535 237.852 437.185 227.555 436.725C218.016 436.298 209.175 441.943 205.552 450.765L201.852 459.775C201.572 460.461 200.79 460.787 200.102 460.507C199.417 460.226 199.09 459.443 199.371 458.759L203.072 449.748C207.124 439.883 216.999 433.582 227.676 434.048C239.189 434.562 248.923 442.781 251.347 454.036L252.822 460.88C252.978 461.603 252.517 462.316 251.794 462.472C251.698 462.492 251.603 462.502 251.51 462.502Z" fill="#FFB6B6"/>
<path d="M253.093 484.293C253.054 484.293 253.013 484.291 252.973 484.288L203.339 479.867C202.601 479.8 202.056 479.15 202.122 478.413C202.189 477.676 202.833 477.135 203.577 477.197L253.211 481.619C253.948 481.685 254.493 482.335 254.428 483.072C254.365 483.769 253.781 484.293 253.093 484.293Z" fill="#FFB6B6"/>
</g>
<defs>
<clipPath id="clip0_51_264">
<rect width="607" height="633" fill="white" transform="translate(-50)"/>
</clipPath>
</defs>
</svg>
