<svg width="1500" height="180" viewBox="0 0 1500 180" fill="none" xmlns="http://www.w3.org/2000/svg">
<path d="M0 54L31.25 69.0187C62.5 83.8125 125 114.188 187.5 132.019C250 150.188 312.5 155.812 375 155.981C437.5 155.812 500 150.188 562.5 128.981C625 108 687.5 72 750 78.0187C812.5 83.8125 875 132.188 937.5 144C1000 155.812 1062.5 132.188 1125 128.981C1187.5 126 1250 144 1312.5 141.019C1375 137.812 1437.5 114.188 1468.75 101.981L1500 90V0H1468.75C1437.5 0 1375 0 1312.5 0C1250 0 1187.5 0 1125 0C1062.5 0 1000 0 937.5 0C875 0 812.5 0 750 0C687.5 0 625 0 562.5 0C500 0 437.5 0 375 0C312.5 0 250 0 187.5 0C125 0 62.5 0 31.25 0H0V54Z" fill="#20B1F0"/>
</svg>
