<svg width="104" height="105" viewBox="0 0 104 105" fill="none" xmlns="http://www.w3.org/2000/svg">
<g clip-path="url(#clip0_20_4)">
<path d="M91 52.5C91 30.9688 73.5312 13.5 52 13.5C30.4688 13.5 13 30.9688 13 52.5C13 74.0312 30.4688 91.5 52 91.5C73.5312 91.5 91 74.0312 91 52.5ZM104 52.5C104 81.2219 80.7219 104.5 52 104.5C23.2781 104.5 0 81.2219 0 52.5C0 23.7781 23.2781 0.5 52 0.5C80.7219 0.5 104 23.7781 104 52.5ZM52 68.75C60.9781 68.75 68.25 61.4781 68.25 52.5C68.25 43.5219 60.9781 36.25 52 36.25C43.0219 36.25 35.75 43.5219 35.75 52.5C35.75 61.4781 43.0219 68.75 52 68.75ZM52 81.75C35.8516 81.75 22.75 68.6484 22.75 52.5C22.75 36.3516 35.8516 23.25 52 23.25C68.1484 23.25 81.25 36.3516 81.25 52.5C81.25 68.6484 68.1484 81.75 52 81.75ZM58.5 52.5C58.5 56.0953 55.5953 59 52 59C48.4047 59 45.5 56.0953 45.5 52.5C45.5 48.9047 48.4047 46 52 46C55.5953 46 58.5 48.9047 58.5 52.5Z" fill="white"/>
</g>
<defs>
<clipPath id="clip0_20_4">
<rect width="104" height="104" fill="white" transform="translate(0 0.5)"/>
</clipPath>
</defs>
</svg>
