<svg width="824" height="648" viewBox="0 0 824 648" fill="none" xmlns="http://www.w3.org/2000/svg">
<g opacity="0.15" clip-path="url(#clip0_51_160)">
<path opacity="0.1" d="M818.577 464.661C815.134 473.42 810.887 481.842 805.891 489.818C805.891 489.88 805.814 489.949 805.767 490.011C803.597 493.358 800.617 496.105 797.104 497.996C793.591 499.887 789.658 500.862 785.668 500.831H68.1754C15.8012 500.831 -17.0149 446.777 9.24569 403.597C56.5023 325.924 101.154 218.11 47.1252 143.807C-39.6344 24.3297 53.8121 2.65084 115.455 0.169946C139.173 -0.777468 162.829 3.21512 184.922 11.8943C213.401 23.0854 265.45 40.1966 333.263 48.0489C335.489 48.3116 337.731 48.5589 340.004 48.8217C375.898 52.5925 412.05 53.2674 448.061 50.8389C449.12 50.7848 450.179 50.6998 451.261 50.6225C486.915 48.0174 522.279 42.3494 556.96 33.6813C559.21 33.1171 561.429 32.5839 563.632 32.0506C679.311 4.41297 785.946 98.5864 759.284 204.979C749.427 244.349 751.932 286.307 784.794 320.244C838.56 375.72 832.043 430.284 818.577 464.661Z" fill="#20B1F0"/>
<path d="M700.284 474.206H709.661C714.787 474.206 719.703 476.242 723.327 479.865C726.951 483.489 728.988 488.403 728.988 493.528V522.209H680.958V493.528C680.958 488.403 682.994 483.489 686.618 479.865C690.243 476.242 695.159 474.206 700.284 474.206Z" fill="#3F3D56"/>
<path opacity="0.1" d="M700.284 474.206H709.661C714.787 474.206 719.703 476.242 723.327 479.865C726.951 483.489 728.988 488.403 728.988 493.528V522.209H680.958V493.528C680.958 488.403 682.994 483.489 686.618 479.865C690.243 476.242 695.159 474.206 700.284 474.206Z" fill="black"/>
<path d="M703.044 484.771C705.166 484.771 706.886 483.051 706.886 480.93C706.886 478.809 705.166 477.089 703.044 477.089C700.922 477.089 699.202 478.809 699.202 480.93C699.202 483.051 700.922 484.771 703.044 484.771Z" fill="#3F3D56"/>
<path d="M703.044 479.972C705.166 479.972 706.886 478.252 706.886 476.131C706.886 474.009 705.166 472.29 703.044 472.29C700.922 472.29 699.202 474.009 699.202 476.131C699.202 478.252 700.922 479.972 703.044 479.972Z" fill="#3F3D56"/>
<path d="M703.044 475.172C705.166 475.172 706.886 473.453 706.886 471.331C706.886 469.21 705.166 467.49 703.044 467.49C700.922 467.49 699.202 469.21 699.202 471.331C699.202 473.453 700.922 475.172 703.044 475.172Z" fill="#3F3D56"/>
<path d="M703.044 470.365C705.166 470.365 706.886 468.645 706.886 466.524C706.886 464.402 705.166 462.683 703.044 462.683C700.922 462.683 699.202 464.402 699.202 466.524C699.202 468.645 700.922 470.365 703.044 470.365Z" fill="#3F3D56"/>
<path d="M703.044 465.566C705.166 465.566 706.886 463.846 706.886 461.724C706.886 459.603 705.166 457.883 703.044 457.883C700.922 457.883 699.202 459.603 699.202 461.724C699.202 463.846 700.922 465.566 703.044 465.566Z" fill="#3F3D56"/>
<path d="M703.044 460.766C705.166 460.766 706.886 459.046 706.886 456.925C706.886 454.803 705.166 453.084 703.044 453.084C700.922 453.084 699.202 454.803 699.202 456.925C699.202 459.046 700.922 460.766 703.044 460.766Z" fill="#3F3D56"/>
<path d="M703.044 455.966C705.166 455.966 706.886 454.247 706.886 452.125C706.886 450.004 705.166 448.284 703.044 448.284C700.922 448.284 699.202 450.004 699.202 452.125C699.202 454.247 700.922 455.966 703.044 455.966Z" fill="#3F3D56"/>
<path d="M708.811 457.891C710.933 457.891 712.653 456.171 712.653 454.05C712.653 451.928 710.933 450.209 708.811 450.209C706.689 450.209 704.969 451.928 704.969 454.05C704.969 456.171 706.689 457.891 708.811 457.891Z" fill="#3F3D56"/>
<path d="M712.653 455.966C714.775 455.966 716.495 454.247 716.495 452.125C716.495 450.004 714.775 448.284 712.653 448.284C710.531 448.284 708.811 450.004 708.811 452.125C708.811 454.247 710.531 455.966 712.653 455.966Z" fill="#3F3D56"/>
<path d="M716.487 454.05C718.609 454.05 720.329 452.33 720.329 450.209C720.329 448.087 718.609 446.367 716.487 446.367C714.365 446.367 712.645 448.087 712.645 450.209C712.645 452.33 714.365 454.05 716.487 454.05Z" fill="#3F3D56"/>
<path d="M703.044 451.167C705.166 451.167 706.886 449.447 706.886 447.326C706.886 445.205 705.166 443.485 703.044 443.485C700.922 443.485 699.202 445.205 699.202 447.326C699.202 449.447 700.922 451.167 703.044 451.167Z" fill="#3F3D56"/>
<path d="M703.044 446.368C705.166 446.368 706.886 444.648 706.886 442.526C706.886 440.405 705.166 438.685 703.044 438.685C700.922 438.685 699.202 440.405 699.202 442.526C699.202 444.648 700.922 446.368 703.044 446.368Z" fill="#3F3D56"/>
<path d="M703.044 441.568C705.166 441.568 706.886 439.848 706.886 437.727C706.886 435.605 705.166 433.886 703.044 433.886C700.922 433.886 699.202 435.605 699.202 437.727C699.202 439.848 700.922 441.568 703.044 441.568Z" fill="#3F3D56"/>
<path d="M703.044 436.769C705.166 436.769 706.886 435.049 706.886 432.928C706.886 430.806 705.166 429.086 703.044 429.086C700.922 429.086 699.202 430.806 699.202 432.928C699.202 435.049 700.922 436.769 703.044 436.769Z" fill="#3F3D56"/>
<path d="M718.969 420.538C718.018 420.678 717.059 420.778 716.101 420.84C716.995 420.058 717.825 419.205 718.582 418.289C718.047 416.676 717.265 415.156 716.263 413.784C715.311 414.318 714.258 414.65 713.171 414.757C712.22 414.897 711.261 415.005 710.303 415.067C711.591 413.841 712.817 412.551 713.975 411.202C711.201 408.698 707.651 407.223 703.919 407.022C700.187 406.822 696.499 407.909 693.473 410.101C690.446 412.294 688.265 415.459 687.293 419.067C686.322 422.675 686.619 426.507 688.135 429.922C689.652 433.337 692.295 436.128 695.623 437.828C698.951 439.528 702.763 440.034 706.419 439.261C710.076 438.488 713.356 436.482 715.71 433.581C718.065 430.679 719.352 427.057 719.355 423.321C719.356 422.38 719.273 421.441 719.108 420.515L718.969 420.538Z" fill="#20B1F0"/>
<path d="M731.809 439.62C730.828 440.221 729.723 440.591 728.578 440.702C727.627 440.842 726.668 440.942 725.71 441.004C726.729 440.09 727.679 439.103 728.555 438.052C726.238 437.448 723.78 437.729 721.66 438.841C719.54 439.953 717.912 441.816 717.092 444.065C716.273 446.314 716.322 448.787 717.23 451.001C718.138 453.216 719.84 455.012 722.002 456.039C724.164 457.066 726.632 457.25 728.922 456.555C731.213 455.859 733.162 454.335 734.388 452.279C735.614 450.224 736.029 447.785 735.552 445.44C735.076 443.094 733.741 441.011 731.809 439.597V439.62Z" fill="#20B1F0"/>
<path d="M697.285 457.891C699.407 457.891 701.127 456.171 701.127 454.05C701.127 451.928 699.407 450.209 697.285 450.209C695.163 450.209 693.443 451.928 693.443 454.05C693.443 456.171 695.163 457.891 697.285 457.891Z" fill="#3F3D56"/>
<path d="M693.443 455.966C695.565 455.966 697.285 454.247 697.285 452.125C697.285 450.004 695.565 448.284 693.443 448.284C691.321 448.284 689.601 450.004 689.601 452.125C689.601 454.247 691.321 455.966 693.443 455.966Z" fill="#3F3D56"/>
<path d="M689.601 454.05C691.723 454.05 693.443 452.33 693.443 450.209C693.443 448.087 691.723 446.367 689.601 446.367C687.479 446.367 685.759 448.087 685.759 450.209C685.759 452.33 687.479 454.05 689.601 454.05Z" fill="#3F3D56"/>
<path d="M674.286 439.62C675.267 440.222 676.372 440.592 677.518 440.702C678.469 440.842 679.427 440.942 680.386 441.004C679.365 440.092 678.414 439.105 677.541 438.052C679.857 437.448 682.316 437.729 684.436 438.841C686.555 439.953 688.184 441.816 689.003 444.065C689.823 446.314 689.773 448.787 688.865 451.001C687.957 453.216 686.256 455.012 684.094 456.039C681.931 457.066 679.464 457.25 677.173 456.555C674.883 455.859 672.934 454.335 671.708 452.279C670.481 450.224 670.066 447.785 670.543 445.44C671.02 443.094 672.355 441.011 674.286 439.597V439.62Z" fill="#20B1F0"/>
<path d="M700.284 477.089H709.661C714.787 477.089 719.703 479.125 723.327 482.748C726.951 486.372 728.988 491.286 728.988 496.41V521.814C728.988 522.684 728.642 523.517 728.028 524.132C727.413 524.746 726.579 525.091 725.71 525.091H684.236C683.366 525.091 682.533 524.746 681.918 524.132C681.303 523.517 680.958 522.684 680.958 521.814V496.41C680.958 491.286 682.994 486.372 686.618 482.748C690.243 479.125 695.159 477.089 700.284 477.089Z" fill="#3F3D56"/>
<g opacity="0.1">
<path d="M719.263 421.589C718.874 422.005 718.461 422.397 718.026 422.764C718.466 422.764 718.899 422.695 719.34 422.648C719.355 422.293 719.301 421.937 719.263 421.589Z" fill="black"/>
<path d="M712.259 416.998C713.225 416.937 714.176 416.836 715.134 416.697C715.994 416.588 716.835 416.359 717.631 416.017C717.24 415.244 716.791 414.503 716.286 413.799C715.806 414.091 715.285 414.313 714.74 414.456C713.982 415.368 713.152 416.218 712.259 416.998Z" fill="black"/>
<path d="M688.642 425.245C688.636 422.315 689.421 419.437 690.914 416.916C692.406 414.394 694.552 412.322 697.123 410.916C699.695 409.511 702.599 408.826 705.528 408.932C708.457 409.038 711.303 409.932 713.766 411.519L714.014 411.256C712.406 409.826 710.531 408.728 708.497 408.026C706.463 407.323 704.31 407.03 702.162 407.163C700.014 407.296 697.913 407.853 695.982 408.801C694.05 409.75 692.325 411.071 690.906 412.688C689.487 414.306 688.403 416.189 687.715 418.227C687.027 420.266 686.75 422.421 686.899 424.567C687.047 426.713 687.62 428.809 688.582 430.733C689.545 432.658 690.879 434.373 692.507 435.779C690.007 432.839 688.637 429.104 688.642 425.245Z" fill="black"/>
</g>
<g opacity="0.1">
<path d="M725.71 442.92C726.668 442.859 727.627 442.758 728.578 442.619C729.724 442.511 730.829 442.141 731.809 441.537C732.895 442.336 733.8 443.355 734.466 444.527C735.132 445.698 735.543 446.997 735.674 448.338C735.712 448.002 735.73 447.664 735.729 447.326C735.736 445.825 735.39 444.343 734.718 443C734.047 441.658 733.069 440.492 731.863 439.597C730.882 440.198 729.777 440.568 728.632 440.679L727.859 440.772C727.199 441.543 726.481 442.261 725.71 442.92Z" fill="black"/>
<path d="M726.096 439.644C726.417 439.647 726.737 439.67 727.055 439.713C727.557 439.18 728.052 438.608 728.555 438.051C727.134 437.672 725.644 437.624 724.202 437.913C722.759 438.201 721.402 438.818 720.236 439.714C719.07 440.611 718.126 441.764 717.478 443.084C716.829 444.404 716.493 445.855 716.495 447.326C716.495 447.65 716.495 447.967 716.541 448.284C716.779 445.916 717.888 443.72 719.654 442.124C721.42 440.527 723.716 439.643 726.096 439.644Z" fill="black"/>
</g>
<g opacity="0.1">
<path d="M680.386 442.92C679.427 442.859 678.469 442.758 677.518 442.619C676.372 442.512 675.266 442.142 674.286 441.537C673.201 442.336 672.296 443.355 671.63 444.527C670.964 445.698 670.552 446.997 670.421 448.338C670.384 448.002 670.366 447.664 670.367 447.326C670.36 445.825 670.706 444.343 671.377 443C672.049 441.658 673.027 440.492 674.232 439.597C675.213 440.199 676.318 440.569 677.464 440.679L678.237 440.772C678.892 441.546 679.611 442.265 680.386 442.92Z" fill="black"/>
<path d="M679.999 439.644C679.676 439.647 679.353 439.67 679.033 439.713C678.538 439.18 678.043 438.608 677.541 438.051C678.962 437.672 680.452 437.624 681.894 437.913C683.337 438.201 684.693 438.818 685.859 439.714C687.025 440.611 687.969 441.764 688.618 443.084C689.267 444.404 689.603 445.855 689.601 447.326C689.601 447.65 689.601 447.967 689.554 448.284C689.317 445.916 688.207 443.72 686.442 442.124C684.676 440.527 682.38 439.643 679.999 439.644Z" fill="black"/>
</g>
<path d="M169.36 517.888H51.8563C50.5318 517.888 49.2616 517.362 48.3251 516.426C47.3885 515.49 46.8624 514.22 46.8624 512.896V457.319C46.8611 456.476 47.0735 455.647 47.4799 454.909C47.8862 454.17 48.4731 453.547 49.1858 453.097C49.8985 452.647 50.7137 452.385 51.5552 452.335C52.3967 452.285 53.237 452.45 53.9976 452.813C87.7723 468.827 124.106 474.322 167.118 453.068C167.88 452.688 168.726 452.509 169.576 452.547C170.426 452.585 171.253 452.839 171.977 453.285C172.702 453.732 173.3 454.356 173.716 455.098C174.132 455.841 174.352 456.677 174.354 457.528V512.911C174.35 514.233 173.822 515.499 172.886 516.431C171.95 517.364 170.682 517.888 169.36 517.888Z" fill="#20B1F0"/>
<path opacity="0.1" d="M169.36 517.888H51.8563C50.5318 517.888 49.2616 517.362 48.3251 516.426C47.3885 515.49 46.8624 514.22 46.8624 512.896V457.319C46.8611 456.476 47.0735 455.647 47.4799 454.909C47.8862 454.17 48.4731 453.547 49.1858 453.097C49.8985 452.647 50.7137 452.385 51.5552 452.335C52.3967 452.285 53.237 452.45 53.9976 452.813C87.7723 468.827 124.106 474.322 167.118 453.068C167.88 452.688 168.726 452.509 169.576 452.547C170.426 452.585 171.253 452.839 171.977 453.285C172.702 453.732 173.3 454.356 173.716 455.098C174.132 455.841 174.352 456.677 174.354 457.528V512.911C174.35 514.233 173.822 515.499 172.886 516.431C171.95 517.364 170.682 517.888 169.36 517.888Z" fill="black"/>
<path d="M109.797 475.613C113.639 475.613 116.754 471.537 116.754 466.508C116.754 461.48 113.639 457.404 109.797 457.404C105.954 457.404 102.839 461.48 102.839 466.508C102.839 471.537 105.954 475.613 109.797 475.613Z" fill="#3F3D56"/>
<path d="M109.797 464.484C113.639 464.484 116.754 460.407 116.754 455.379C116.754 450.351 113.639 446.275 109.797 446.275C105.954 446.275 102.839 450.351 102.839 455.379C102.839 460.407 105.954 464.484 109.797 464.484Z" fill="#3F3D56"/>
<path d="M109.797 453.354C113.639 453.354 116.754 449.278 116.754 444.25C116.754 439.222 113.639 435.146 109.797 435.146C105.954 435.146 102.839 439.222 102.839 444.25C102.839 449.278 105.954 453.354 109.797 453.354Z" fill="#3F3D56"/>
<path d="M109.797 442.225C113.639 442.225 116.754 438.149 116.754 433.121C116.754 428.092 113.639 424.016 109.797 424.016C105.954 424.016 102.839 428.092 102.839 433.121C102.839 438.149 105.954 442.225 109.797 442.225Z" fill="#3F3D56"/>
<path d="M109.797 431.096C113.639 431.096 116.754 427.02 116.754 421.991C116.754 416.963 113.639 412.887 109.797 412.887C105.954 412.887 102.839 416.963 102.839 421.991C102.839 427.02 105.954 431.096 109.797 431.096Z" fill="#3F3D56"/>
<path d="M109.797 419.966C113.639 419.966 116.754 415.89 116.754 410.862C116.754 405.834 113.639 401.758 109.797 401.758C105.954 401.758 102.839 405.834 102.839 410.862C102.839 415.89 105.954 419.966 109.797 419.966Z" fill="#3F3D56"/>
<path d="M109.797 408.837C113.639 408.837 116.754 404.761 116.754 399.733C116.754 394.705 113.639 390.629 109.797 390.629C105.954 390.629 102.839 394.705 102.839 399.733C102.839 404.761 105.954 408.837 109.797 408.837Z" fill="#3F3D56"/>
<path d="M135.841 323.575C136.792 322.364 137.657 321.088 138.43 319.757L120.148 316.758L139.922 316.905C141.816 312.778 142.849 308.309 142.958 303.77C143.067 299.231 142.25 294.717 140.556 290.504L114.056 304.261L138.515 286.284C136.221 282.33 133.137 278.889 129.456 276.177C125.775 273.465 121.574 271.54 117.116 270.52C112.659 269.501 108.039 269.41 103.544 270.253C99.0496 271.095 94.7766 272.854 90.9911 275.418C87.2055 277.983 83.9884 281.299 81.54 285.161C79.0916 289.022 77.4642 293.346 76.7591 297.863C76.054 302.38 76.2863 306.994 77.4415 311.417C78.5967 315.841 80.6502 319.979 83.4741 323.575C81.991 325.457 80.7158 327.494 79.6707 329.65L103.403 341.977L78.1014 333.475C76.3219 338.727 75.8813 344.339 76.8195 349.803C77.7577 355.267 80.045 360.411 83.4741 364.769C79.6078 369.683 77.2027 375.586 76.5338 381.803C75.865 388.02 76.9594 394.299 79.6919 399.924C82.4244 405.548 86.6848 410.29 91.9859 413.607C97.287 416.925 103.415 418.684 109.669 418.684C115.923 418.684 122.051 416.925 127.352 413.607C132.653 410.29 136.914 405.548 139.646 399.924C142.379 394.299 143.473 388.02 142.804 381.803C142.135 375.586 139.73 369.683 135.864 364.769C140.481 358.894 142.991 351.639 142.991 344.168C142.991 336.697 140.481 329.442 135.864 323.567L135.841 323.575Z" fill="#20B1F0"/>
<path opacity="0.1" d="M76.3156 344.172C76.3086 351.647 78.8224 358.906 83.4509 364.776C79.5846 369.691 77.1795 375.594 76.5106 381.811C75.8418 388.028 76.9362 394.307 79.6687 399.931C82.4012 405.555 86.6616 410.297 91.9627 413.615C97.2638 416.933 103.392 418.692 109.646 418.692C115.9 418.692 122.028 416.933 127.329 413.615C132.63 410.297 136.89 405.555 139.623 399.931C142.355 394.307 143.45 388.028 142.781 381.811C142.112 375.594 139.707 369.691 135.841 364.776C140.34 359.104 76.3156 340.431 76.3156 344.172Z" fill="black"/>
<path d="M169.36 520.833H51.8563C50.5311 520.831 49.2609 520.303 48.3246 519.366C47.3883 518.428 46.8624 517.157 46.8624 515.833V457.319C46.8611 456.476 47.0735 455.647 47.4799 454.909C47.8862 454.17 48.4731 453.547 49.1858 453.097C49.8985 452.647 50.7137 452.385 51.5552 452.335C52.3967 452.285 53.237 452.45 53.9976 452.813C87.7568 468.827 114.528 487.492 167.118 453.053C170.21 451.02 174.354 453.826 174.354 457.512V515.833C174.354 517.157 173.828 518.428 172.892 519.366C171.956 520.303 170.685 520.831 169.36 520.833Z" fill="#20B1F0"/>
<path d="M224.061 536.452L240.728 563.634C240.728 563.634 280.193 581.17 328.431 536.452C376.669 491.735 328.431 453.161 328.431 453.161L269.679 468.294L224.061 536.452Z" fill="#F86D70"/>
<path opacity="0.15" d="M224.061 536.452L240.728 563.634C240.728 563.634 280.193 581.17 328.431 536.452C376.669 491.735 328.431 453.161 328.431 453.161L269.679 468.294L224.061 536.452Z" fill="black"/>
<path d="M301.065 607.641L278.121 617.325C254.025 627.504 229.89 637.698 204.998 645.743C198.172 647.953 189.908 649.739 184.473 645.063C179.039 640.387 179.595 631.785 182.471 625.285C183.538 622.874 184.868 620.548 185.393 617.966C186.089 614.566 185.324 611.057 184.813 607.618C184.04 602.354 183.901 596.898 185.355 591.782C186.808 586.665 189.993 581.889 194.708 579.37C198.179 577.499 203.019 577.206 205.655 580.142C207.812 582.538 207.781 586.194 209.335 589.023C211.399 592.763 216.037 594.487 220.304 594.301C224.571 594.116 228.599 592.354 232.518 590.63C263.533 576.974 294.68 563.24 323.313 545.109C328.269 541.978 333.154 538.701 338.372 536.035C343.392 533.459 348.688 531.46 354.158 530.076C354.749 529.844 355.407 529.844 355.998 530.076C356.292 530.313 356.53 530.612 356.696 530.951C356.862 531.29 356.951 531.662 356.957 532.039C358.139 539.575 359.322 547.118 360.01 554.715C360.551 560.674 362.584 571.177 360.257 576.835C358.348 581.472 348.322 585.336 344.023 587.732C337.561 591.279 330.928 594.518 324.226 597.586C316.549 601.095 308.811 604.372 301.065 607.641Z" fill="#FBBEBE"/>
<path opacity="0.05" d="M301.065 607.641L278.121 617.325C254.025 627.504 229.89 637.698 204.998 645.743C198.172 647.953 189.908 649.739 184.473 645.063C179.039 640.387 179.595 631.785 182.471 625.285C183.538 622.874 184.868 620.548 185.393 617.966C186.089 614.566 185.324 611.057 184.813 607.618C184.04 602.354 183.901 596.898 185.355 591.782C186.808 586.665 189.993 581.889 194.708 579.37C198.179 577.499 203.019 577.206 205.655 580.142C207.812 582.538 207.781 586.194 209.335 589.023C211.399 592.763 216.037 594.487 220.304 594.301C224.571 594.116 228.599 592.354 232.518 590.63C263.533 576.974 294.68 563.24 323.313 545.109C328.269 541.978 333.154 538.701 338.372 536.035C343.392 533.459 348.688 531.46 354.158 530.076C354.749 529.844 355.407 529.844 355.998 530.076C356.292 530.313 356.53 530.612 356.696 530.951C356.862 531.29 356.951 531.662 356.957 532.039C358.139 539.575 359.322 547.118 360.01 554.715C360.551 560.674 362.584 571.177 360.257 576.835C358.348 581.472 348.322 585.336 344.023 587.732C337.561 591.279 330.928 594.518 324.226 597.586C316.549 601.095 308.811 604.372 301.065 607.641Z" fill="black"/>
<path d="M299.704 562.908C295.337 566.834 290.575 570.373 286.818 574.879C282.264 580.343 279.389 586.99 276.899 593.652C274.256 600.727 271.975 607.931 270.066 615.238C268.465 621.328 267.066 627.65 263.533 632.859C260 638.069 253.677 641.979 247.523 640.588C242.151 639.406 238.301 634.637 235.835 629.714C233.369 624.791 231.784 619.389 228.584 614.906C225.004 609.96 219.423 606.095 217.707 600.167C215.898 593.938 219.152 587.029 224.224 583.025C229.295 579.022 235.819 577.267 242.236 576.278C242.941 576.227 243.627 576.024 244.246 575.683C245.66 574.771 245.792 572.777 245.738 571.092C245.296 547.263 247.712 523.467 252.935 500.213C254.481 493.257 256.321 486.301 259.691 480.118C265.767 468.881 278.113 460.171 290.768 461.925C300.044 463.208 307.991 469.878 312.715 477.993C317.438 486.108 319.348 495.537 320.399 504.866C321.45 514.194 324.195 529.242 319.68 537.782C314.521 547.246 307.762 555.747 299.704 562.908Z" fill="#FBBEBE"/>
<path d="M446.878 226.217C446.105 232.215 445.502 238.792 448.787 243.877C450.79 246.969 453.99 249.102 457.152 251.011C461.747 253.779 466.488 256.3 471.353 258.561C471.917 258.758 472.406 259.125 472.752 259.613C473.004 260.292 472.985 261.042 472.698 261.707C466.952 281.254 459.883 300.388 451.539 318.976C451.142 320.09 450.481 321.092 449.615 321.898C448.657 322.547 447.556 322.956 446.406 323.088C423.576 327.309 399.99 323.011 380.117 311.008C377.712 309.625 375.487 307.951 373.492 306.023C371.658 304.089 370.097 301.912 368.854 299.554C359.577 282.706 360.644 262.302 361.95 243.135C367.332 243.668 372.765 243.311 378.03 242.076C380.635 241.557 383.124 240.567 385.374 239.155C389.742 236.203 392.084 231.109 394.001 226.194C396.948 218.605 399.379 210.825 401.276 202.908C401.956 200.079 433.682 205.767 436.875 206.478C440.392 207.251 448.772 207.784 449.916 211.888C450.921 215.42 447.396 222.43 446.878 226.217Z" fill="#FBBEBE"/>
<path opacity="0.05" d="M446.878 226.217C446.105 232.215 445.502 238.792 448.787 243.877C450.79 246.969 453.99 249.102 457.152 251.011C461.747 253.779 466.488 256.3 471.353 258.561C471.917 258.758 472.406 259.125 472.752 259.613C473.004 260.292 472.985 261.042 472.698 261.707C466.952 281.254 459.883 300.388 451.539 318.976C451.142 320.09 450.481 321.092 449.615 321.898C448.657 322.547 447.556 322.956 446.406 323.088C423.576 327.309 399.99 323.011 380.117 311.008C377.712 309.625 375.487 307.951 373.492 306.023C371.658 304.089 370.097 301.912 368.854 299.554C359.577 282.706 360.644 262.302 361.95 243.135C367.332 243.668 372.765 243.311 378.03 242.076C380.635 241.557 383.124 240.567 385.374 239.155C389.742 236.203 392.084 231.109 394.001 226.194C396.948 218.605 399.379 210.825 401.276 202.908C401.956 200.079 433.682 205.767 436.875 206.478C440.392 207.251 448.772 207.784 449.916 211.888C450.921 215.42 447.396 222.43 446.878 226.217Z" fill="black"/>
<path d="M328.616 388.797C348.716 387.823 368.367 394.555 387.191 401.742C406.014 408.93 425.681 415.832 445.78 417.2C447.195 412.045 448.702 406.866 450.596 401.866C452.446 396.844 454.858 392.048 457.786 387.568C460.221 383.936 463.104 380.558 464.96 376.609C468.616 368.811 467.905 359.791 467.487 351.197C467.07 342.603 471.283 315.12 476.207 308.048C472.721 302.746 469.165 305.451 465.679 300.157C463.823 297.321 456.827 304.632 454.083 302.599C451.199 300.451 447.635 299.446 444.126 298.627C424.575 293.99 404.035 293.696 385.042 287.15C380.032 285.426 374.652 283.285 369.635 284.932C367.661 285.688 365.81 286.73 364.138 288.023L352.295 296.409C351.197 297.182 350.517 297.12 349.976 298.364C347.146 304.992 345.363 312.018 344.688 319.193C343.915 327.563 344.619 336.01 343.676 344.357C342.502 353.886 340.042 363.212 336.362 372.08C334.065 377.779 331.479 383.359 328.616 388.797Z" fill="#F86D70"/>
<path d="M431.038 229.579C457.679 229.579 479.276 207.987 479.276 181.352C479.276 154.718 457.679 133.126 431.038 133.126C404.397 133.126 382.8 154.718 382.8 181.352C382.8 207.987 404.397 229.579 431.038 229.579Z" fill="#FBBEBE"/>
<path d="M367.571 239.139C367.957 253.566 368.776 267.965 370.029 282.335C370.284 285.303 370.686 288.518 372.85 290.589C368.055 293.754 362.596 295.774 356.895 296.494C353.447 287.049 349.937 277.257 350.587 267.218C351.081 259.427 353.911 252.023 354.599 244.264C354.8 242.045 354.22 238.969 356.531 237.771C357.413 237.315 367.571 239.039 367.571 239.139Z" fill="#F86D70"/>
<path d="M339.957 381.617C336.641 381.918 333.773 383.936 331.059 385.86C298.815 409.293 270.212 437.974 247.918 471.037C242.367 479.268 237.203 487.77 231.297 495.769C215.62 516.984 195.11 534.103 174.169 550.132C179.634 549.885 185.764 550.039 191.237 549.792C194.252 549.653 197.321 549.522 200.259 550.225C203.197 550.928 206.049 552.613 207.464 555.279C208.77 557.737 209.118 561.192 211.723 562.173C212.902 562.487 214.14 562.503 215.326 562.22C224.125 561.017 233.083 562.448 241.068 566.331C241.362 559.71 242.352 553.138 244.021 546.724C244.949 543.03 246.155 539.413 247.392 535.803C250.167 527.727 253.128 519.643 257.658 512.393C262.78 504.215 269.746 497.35 277.997 492.345C280.301 490.818 282.888 489.767 285.604 489.254C292.414 488.257 298.985 493.18 302.132 499.301C305.278 505.422 305.757 512.517 306.175 519.395C306.69 527.82 307.206 536.246 307.721 544.676C307.906 547.729 308.146 550.951 309.862 553.486C311.207 550.89 314.439 550.395 316.951 548.896C321.752 546.044 327.14 543.084 332.613 544.204C338.713 545.441 342.663 551.292 345.376 556.887C350.13 566.698 353.205 577.237 354.475 588.064C365.878 581.959 373.291 570.343 375.997 557.691C377.543 550.542 377.272 543.107 378.61 535.919C380.371 526.505 384.771 517.783 391.296 510.77C405.697 495.352 428.611 490.073 442.781 474.446C444.644 472.382 446.391 470.025 446.731 467.266C447.133 463.966 445.432 460.758 445.355 457.435C445.231 451.808 449.576 447.249 453.086 442.866C456.473 438.674 459.329 434.08 461.589 429.187C462.78 426.598 463.823 423.777 463.576 420.963C463.328 418.15 461.473 415.229 458.675 414.657C453.557 413.614 448.47 420.337 443.871 417.849C442.704 417.104 441.754 416.064 441.119 414.835C438.192 410.066 436.142 404.813 435.066 399.323C423.47 395.096 411.263 393.596 399.312 390.567C394.225 389.276 389.262 387.56 384.222 386.084C369.975 381.903 354.807 381.841 339.957 381.617Z" fill="#F86D70"/>
<path d="M328.616 388.797C348.716 387.823 368.367 394.555 387.191 401.742C406.014 408.93 425.681 415.832 445.78 417.2C447.195 412.045 448.702 406.866 450.596 401.866C448.795 400.838 446.607 400.112 445.046 399.362C435.499 394.74 425.69 390.678 415.67 387.197C395.475 380.188 374.539 375.533 353.277 373.324C347.68 372.737 342.052 372.335 336.424 372.103C334.106 377.796 331.5 383.368 328.616 388.797Z" fill="#F86D70"/>
<path opacity="0.15" d="M328.616 388.797C348.716 387.823 368.367 394.555 387.191 401.742C406.014 408.93 425.681 415.832 445.78 417.2C447.195 412.045 448.702 406.866 450.596 401.866C448.795 400.838 446.607 400.112 445.046 399.362C435.499 394.74 425.69 390.678 415.67 387.197C395.475 380.188 374.539 375.533 353.277 373.324C347.68 372.737 342.052 372.335 336.424 372.103C334.106 377.796 331.5 383.368 328.616 388.797Z" fill="black"/>
<path d="M469.845 260.393C479.549 260.001 489.014 263.462 496.175 270.021C503.335 276.581 507.609 285.705 508.065 295.404C508.169 300.142 507.733 304.877 506.766 309.517C502.19 334.441 492.851 359.714 498.409 384.438C500.041 391.734 502.947 398.782 503.488 406.233C503.656 409.843 503.545 413.46 503.156 417.053L500.188 452.705C504.362 457.342 509.967 461.531 514.535 465.844C519.104 470.156 523.263 475.203 524.732 481.301C525.393 484.52 525.596 487.817 525.335 491.093C525.258 492.763 525.072 494.602 523.858 495.73C522.645 496.859 520.109 496.581 519.869 494.958C519.035 497.137 515.579 496.952 514.041 495.197C512.502 493.443 512.247 490.946 511.791 488.651C511.035 484.822 509.538 481.178 507.385 477.924C506.403 479.377 506.612 481.286 506.418 483.025C506.225 484.763 505.189 486.781 503.434 486.773C501.316 486.773 500.512 484.045 500.226 481.942C499.832 478.982 499.206 475.968 497.629 473.441C496.052 470.914 493.346 468.889 490.354 468.858C490.802 468.995 491.205 469.249 491.522 469.594C491.839 469.939 492.057 470.363 492.155 470.821C489.106 471.946 485.823 472.286 482.608 471.81C480.765 471.59 479 470.941 477.452 469.917C474.87 468.085 473.494 464.939 473.007 461.809C472.52 458.679 472.775 455.495 472.814 452.326C472.968 439.11 469.072 426.227 465.215 413.583C462.246 403.86 459.595 394.261 460.499 384.152C460.932 379.322 462.122 374.599 462.818 369.8C465.315 352.411 461.272 333.924 467.781 317.593C468.461 315.869 469.281 314.084 469.064 312.245C468.74 310.627 467.991 309.125 466.892 307.894C463.708 303.741 459.955 300.057 455.745 296.95C456.577 295.803 457.195 294.514 457.569 293.147C460.499 281.964 462.648 269.459 469.845 260.393Z" fill="#FBBEBE"/>
<path d="M474.762 267.867C473.196 274.2 472.009 280.621 471.206 287.096C469.814 300.428 472.69 299.5 469.18 312.43C460.623 307.932 451.014 318.072 442.456 313.574C441.683 313.149 440.755 312.608 440.601 311.712C440.584 310.896 440.889 310.108 441.451 309.517C446.72 302.328 450.942 294.428 453.99 286.052C456.394 279.429 458.064 272.527 461.133 266.19C462.942 262.441 465.362 258.801 468.949 256.691C470.935 255.524 478.998 253.337 479.771 257.201C479.98 258.322 477.452 260.502 476.872 261.553C475.878 263.549 475.168 265.674 474.762 267.867Z" fill="#F86D70"/>
<path d="M454.748 330.94C473.157 330.94 488.082 316.02 488.082 297.614C488.082 279.209 473.157 264.289 454.748 264.289C436.338 264.289 421.414 279.209 421.414 297.614C421.414 316.02 436.338 330.94 454.748 330.94Z" fill="#20B1F0"/>
<path d="M553.397 330.94C571.807 330.94 586.731 316.02 586.731 297.614C586.731 279.209 571.807 264.289 553.397 264.289C534.987 264.289 520.063 279.209 520.063 297.614C520.063 316.02 534.987 330.94 553.397 330.94Z" fill="#20B1F0"/>
<path opacity="0.1" d="M545.287 330.94C559.223 330.94 570.52 318.013 570.52 302.066C570.52 286.119 559.223 273.192 545.287 273.192C531.352 273.192 520.055 286.119 520.055 302.066C520.055 318.013 531.352 330.94 545.287 330.94Z" fill="black"/>
<path opacity="0.1" d="M462.857 330.94C476.792 330.94 488.089 318.013 488.089 302.066C488.089 286.119 476.792 273.192 462.857 273.192C448.921 273.192 437.624 286.119 437.624 302.066C437.624 318.013 448.921 330.94 462.857 330.94Z" fill="black"/>
<path d="M622.786 433.43C621.827 443.802 613.509 453.926 603.088 453.988C598.45 453.988 594.067 452.172 589.947 450.062C586.375 448.23 582.85 446.113 580.26 443.044C579.881 442.596 579.534 442.14 579.201 441.669C575.073 435.81 574.207 428.035 570.613 421.729C564.158 410.391 550.366 405.8 537.673 402.778C524.288 399.586 510.743 397.105 497.095 395.343C487.819 394.137 478.395 393.272 469.103 394.416C449.329 396.85 431.471 408.196 411.781 410.793C411.117 410.878 410.452 410.955 409.779 411.024C403.595 411.643 397.325 411.334 391.125 411.906C380.805 412.856 370.647 416.257 360.304 415.553C349.96 414.85 338.79 408.111 338.055 397.778C337.538 390.497 342.485 383.688 348.747 379.94C355.008 376.192 362.407 374.916 369.619 373.873C388.768 371.098 408.426 369.336 426.052 361.422C432.36 358.593 438.343 355 444.86 352.696C447.759 351.655 450.772 350.962 453.835 350.633C457.669 350.193 461.553 350.689 465.153 352.078L455.876 355.602L546.455 349.211L550.026 348.964C554.317 348.662 558.684 348.361 562.882 349.311C570.102 350.95 576.024 356.128 580.593 361.971C585.161 367.814 588.571 374.453 592.853 380.52C598.875 389.021 606.505 396.255 612.682 404.633C618.859 413.011 623.737 423.066 622.786 433.43Z" fill="#20B1F0"/>
<path opacity="0.1" d="M580.569 420.09C580.612 427.305 580.166 434.514 579.232 441.669C575.104 435.81 574.238 428.035 570.643 421.729C564.188 410.391 550.397 405.8 537.704 402.778C524.318 399.586 510.774 397.105 497.126 395.343C487.85 394.137 478.426 393.272 469.134 394.416C449.359 396.85 431.502 408.196 411.812 410.793C416.095 380.218 431.564 360.634 453.905 350.625C466.034 345.215 480.189 342.587 495.719 342.587C514.783 342.587 532.37 343.36 546.54 349.203C567.196 357.705 580.569 376.933 580.569 420.09Z" fill="black"/>
<path d="M576.225 423.174C576.225 439.505 574.269 452.272 570.698 462.242C561.931 486.688 543.494 494.347 520.55 496.65C512.819 497.423 504.617 497.593 496.083 497.593C485.325 497.672 474.614 496.183 464.287 493.172C445.154 487.414 429.453 475.891 421.468 457.914C417.162 448.238 415.098 436.699 415.933 423.174C419.133 371.578 451.818 348.732 496.083 348.732C540.348 348.732 576.225 353.315 576.225 423.174Z" fill="#2F2E41"/>
<path opacity="0.1" d="M504.076 395.32C538.629 395.32 566.639 367.316 566.639 332.772C566.639 298.228 538.629 270.224 504.076 270.224C469.523 270.224 441.513 298.228 441.513 332.772C441.513 367.316 469.523 395.32 504.076 395.32Z" fill="black"/>
<path d="M504.076 391.664C538.629 391.664 566.639 363.66 566.639 329.116C566.639 294.572 538.629 266.568 504.076 266.568C469.523 266.568 441.513 294.572 441.513 329.116C441.513 363.66 469.523 391.664 504.076 391.664Z" fill="#2F2E41"/>
<path d="M496.083 312.005C497.85 312.005 499.283 310.573 499.283 308.806C499.283 307.038 497.85 305.606 496.083 305.606C494.315 305.606 492.882 307.038 492.882 308.806C492.882 310.573 494.315 312.005 496.083 312.005Z" fill="#FBBEBE"/>
<path d="M511.606 312.005C513.373 312.005 514.806 310.573 514.806 308.806C514.806 307.038 513.373 305.606 511.606 305.606C509.838 305.606 508.405 307.038 508.405 308.806C508.405 310.573 509.838 312.005 511.606 312.005Z" fill="#FBBEBE"/>
<path opacity="0.1" d="M504.076 357.689C522.11 357.689 536.73 348.27 536.73 336.652C536.73 325.033 522.11 315.615 504.076 315.615C486.042 315.615 471.422 325.033 471.422 336.652C471.422 348.27 486.042 357.689 504.076 357.689Z" fill="black"/>
<path d="M504.076 356.514C521.103 356.514 534.905 347.621 534.905 336.652C534.905 325.682 521.103 316.789 504.076 316.789C487.049 316.789 473.247 325.682 473.247 336.652C473.247 347.621 487.049 356.514 504.076 356.514Z" fill="#20B1F0"/>
<path opacity="0.1" d="M464.287 493.172C445.154 487.414 429.453 475.891 421.468 457.914C424.168 456.979 427.005 456.5 429.863 456.5C446.182 456.5 459.95 471.98 464.287 493.172Z" fill="black"/>
<path d="M463.885 510.608C463.885 538.717 447.836 561.509 428.039 561.509C414.626 561.509 402.938 551.06 396.792 535.571C393.689 527.616 392.115 519.147 392.154 510.608C392.154 482.491 408.21 459.699 428.008 459.699C445.873 459.699 460.692 478.248 463.406 502.562C463.719 505.233 463.879 507.919 463.885 510.608Z" fill="#2F2E41"/>
<path opacity="0.1" d="M463.885 510.608C463.885 538.717 447.836 561.509 428.039 561.509C414.626 561.509 402.938 551.06 396.792 535.571C397.766 515.222 418.329 498.961 443.561 498.961C450.362 498.923 457.112 500.133 463.475 502.531C463.767 505.214 463.904 507.91 463.885 510.608Z" fill="black"/>
<path d="M446.306 577.036C472.157 577.036 493.114 559.966 493.114 538.91C493.114 517.854 472.157 500.785 446.306 500.785C420.454 500.785 399.498 517.854 399.498 538.91C399.498 559.966 420.454 577.036 446.306 577.036Z" fill="#20B1F0"/>
<path d="M449.839 577.036C473.735 577.036 493.106 561.039 493.106 541.306C493.106 521.573 473.735 505.577 449.839 505.577C425.943 505.577 406.571 521.573 406.571 541.306C406.571 561.039 425.943 577.036 449.839 577.036Z" fill="#2F2E41"/>
<path opacity="0.1" d="M465.253 536.908C469.416 536.908 472.791 532.694 472.791 527.495C472.791 522.296 469.416 518.082 465.253 518.082C461.091 518.082 457.716 522.296 457.716 527.495C457.716 532.694 461.091 536.908 465.253 536.908Z" fill="black"/>
<path d="M465.253 535.486C468.784 535.486 471.646 531.909 471.646 527.495C471.646 523.082 468.784 519.504 465.253 519.504C461.723 519.504 458.86 523.082 458.86 527.495C458.86 531.909 461.723 535.486 465.253 535.486Z" fill="#20B1F0"/>
<path opacity="0.1" d="M442.881 543.934C447.257 543.934 450.805 540.152 450.805 535.486C450.805 530.821 447.257 527.039 442.881 527.039C438.505 527.039 434.957 530.821 434.957 535.486C434.957 540.152 438.505 543.934 442.881 543.934Z" fill="black"/>
<path d="M442.881 542.79C446.664 542.79 449.73 539.52 449.73 535.486C449.73 531.453 446.664 528.183 442.881 528.183C439.099 528.183 436.032 531.453 436.032 535.486C436.032 539.52 439.099 542.79 442.881 542.79Z" fill="#20B1F0"/>
<path opacity="0.1" d="M430.551 561.524C435.218 561.524 439.001 558.451 439.001 554.661C439.001 550.871 435.218 547.798 430.551 547.798C425.885 547.798 422.102 550.871 422.102 554.661C422.102 558.451 425.885 561.524 430.551 561.524Z" fill="black"/>
<path d="M430.551 560.597C434.586 560.597 437.856 557.939 437.856 554.661C437.856 551.383 434.586 548.726 430.551 548.726C426.516 548.726 423.246 551.383 423.246 554.661C423.246 557.939 426.516 560.597 430.551 560.597Z" fill="#20B1F0"/>
<path opacity="0.1" d="M469.527 568.597C477.575 561.6 481.133 552.518 477.474 548.312C473.815 544.105 464.325 546.367 456.277 553.364C448.229 560.36 444.671 569.442 448.33 573.649C451.989 577.855 461.479 575.594 469.527 568.597Z" fill="black"/>
<path d="M469.091 568.095C476.613 561.555 479.941 553.068 476.523 549.138C473.105 545.209 464.236 547.325 456.713 553.865C449.19 560.405 445.863 568.893 449.281 572.822C452.699 576.752 461.568 574.635 469.091 568.095Z" fill="#20B1F0"/>
<path opacity="0.1" d="M570.698 462.242C561.931 486.688 543.494 494.347 520.55 496.65C524.26 474.16 538.477 457.412 555.445 457.412C560.899 457.457 566.213 459.14 570.698 462.242Z" fill="black"/>
<path d="M594.036 510.608C594.102 519.907 592.236 529.118 588.555 537.658C582.216 551.987 570.984 561.509 558.19 561.509C538.392 561.509 522.343 538.717 522.343 510.608C522.339 507.962 522.481 505.317 522.768 502.686C525.451 478.333 540.286 459.699 558.19 459.699C577.987 459.699 594.036 482.491 594.036 510.608Z" fill="#2F2E41"/>
<path opacity="0.1" d="M588.555 537.542V537.658C582.216 551.987 570.984 561.509 558.19 561.509C538.392 561.509 522.343 538.717 522.343 510.608C522.339 507.962 522.481 505.317 522.768 502.686C528.858 500.512 535.28 499.413 541.747 499.44C567.598 499.44 588.555 516.482 588.555 537.542Z" fill="black"/>
<path d="M539.922 577.036C565.774 577.036 586.731 559.966 586.731 538.91C586.731 517.854 565.774 500.785 539.922 500.785C514.071 500.785 493.114 517.854 493.114 538.91C493.114 559.966 514.071 577.036 539.922 577.036Z" fill="#20B1F0"/>
<path d="M535.926 577.036C559.57 577.036 578.737 561.039 578.737 541.306C578.737 521.573 559.57 505.577 535.926 505.577C512.282 505.577 493.114 521.573 493.114 541.306C493.114 561.039 512.282 577.036 535.926 577.036Z" fill="#2F2E41"/>
<path opacity="0.1" d="M520.967 537.086C525.202 537.086 528.636 532.792 528.636 527.495C528.636 522.198 525.202 517.904 520.967 517.904C516.732 517.904 513.298 522.198 513.298 527.495C513.298 532.792 516.732 537.086 520.967 537.086Z" fill="black"/>
<path d="M520.967 535.486C524.498 535.486 527.36 531.909 527.36 527.495C527.36 523.082 524.498 519.504 520.967 519.504C517.436 519.504 514.574 523.082 514.574 527.495C514.574 531.909 517.436 535.486 520.967 535.486Z" fill="#20B1F0"/>
<path opacity="0.1" d="M543.347 543.934C547.723 543.934 551.271 540.152 551.271 535.486C551.271 530.821 547.723 527.039 543.347 527.039C538.971 527.039 535.423 530.821 535.423 535.486C535.423 540.152 538.971 543.934 543.347 543.934Z" fill="black"/>
<path d="M543.347 542.79C547.13 542.79 550.196 539.52 550.196 535.486C550.196 531.453 547.13 528.183 543.347 528.183C539.564 528.183 536.498 531.453 536.498 535.486C536.498 539.52 539.564 542.79 543.347 542.79Z" fill="#20B1F0"/>
<path opacity="0.1" d="M555.677 561.524C560.344 561.524 564.127 558.451 564.127 554.661C564.127 550.871 560.344 547.798 555.677 547.798C551.011 547.798 547.228 550.871 547.228 554.661C547.228 558.451 551.011 561.524 555.677 561.524Z" fill="black"/>
<path d="M555.677 560.597C559.712 560.597 562.983 557.939 562.983 554.661C562.983 551.383 559.712 548.726 555.677 548.726C551.643 548.726 548.372 551.383 548.372 554.661C548.372 557.939 551.643 560.597 555.677 560.597Z" fill="#20B1F0"/>
<path opacity="0.1" d="M537.903 573.753C541.561 569.547 538.003 560.465 529.956 553.468C521.908 546.471 512.418 544.21 508.759 548.416C505.1 552.623 508.658 561.705 516.706 568.701C524.754 575.698 534.244 577.96 537.903 573.753Z" fill="black"/>
<path d="M536.952 572.927C540.37 568.997 537.042 560.51 529.519 553.97C521.997 547.43 513.128 545.313 509.71 549.243C506.292 553.172 509.619 561.66 517.142 568.2C524.665 574.74 533.534 576.856 536.952 572.927Z" fill="#20B1F0"/>
<path d="M358.719 240.716C350.968 238.104 342.581 238.057 334.801 240.585C331.005 241.829 327.256 243.808 324.999 247.115C323.19 249.766 322.509 253.012 321.906 256.158C319.989 265.68 318.129 275.212 316.325 284.754C314.238 295.767 315.993 307.051 318.404 317.987C320.816 328.923 322.749 340.168 324.125 351.382C324.773 355.647 324.975 359.967 324.728 364.274C324.311 369.127 322.85 373.981 323.63 378.788C325.068 387.622 333.378 393.411 340.97 398.156C343.776 406.457 352.566 410.908 360.296 414.997C376.5 423.551 391.99 433.393 406.617 444.428C411.789 448.292 416.899 452.411 422.766 455.155C428.255 457.729 434.223 459.019 440.145 460.349L458.698 464.414C464.217 463.641 470.294 462.095 475.311 459.653C478.233 458.208 481.456 455.572 480.722 452.404C480.204 450.27 478.078 449.003 476.146 447.975C469.961 444.706 463.777 441.406 457.013 439.767C453.271 438.855 449.421 438.469 445.626 437.773C441.524 437.058 437.517 435.878 433.682 434.257C424.104 430.106 416.311 422.78 408.736 415.592C401.569 408.806 395.246 401.588 388.373 394.508C385.193 391.433 381.846 388.536 378.347 385.829C370.686 379.513 363.392 372.765 356.5 365.619C352.635 361.584 355.047 354.659 355.395 349.064C355.905 340.949 354.065 332.896 352.519 324.912C351.746 320.924 351.05 316.874 351.306 312.824C351.692 306.641 354.251 300.86 356.145 294.979C360.285 282.069 361.302 268.362 359.113 254.983C358.34 250.199 357.474 245.4 358.719 240.716Z" fill="#FBBEBE"/>
<path d="M472.59 179.66C485.979 177.156 492.48 160.223 488.607 147.161C484.734 134.1 473.842 124.485 463.004 116.247C445.309 102.768 425.356 90.5952 403.177 88.9645C380.998 87.3337 356.5 99.5372 350.61 120.969C346.791 134.842 351.081 150.059 346.806 163.801C340.622 183.648 318.598 194.77 310.566 213.944C301.034 236.728 313.905 262.032 317.369 286.485C323.599 330.539 294.107 376.965 251.551 390.049C267.275 392.221 283.246 394.099 298.978 392.089C314.709 390.08 330.449 383.781 340.97 371.902C345.956 366.268 349.937 359.297 356.671 355.935C360.69 353.933 365.259 353.446 369.642 352.488C395.037 346.954 415.144 322.887 416.08 296.927C416.76 278.077 408.457 260.03 406.927 241.226C405.241 220.46 412.524 199.994 425.557 183.942C442.843 162.665 451.184 183.663 472.59 179.66Z" fill="#2F2E41"/>
<path opacity="0.15" d="M488.607 148.042C484.742 134.981 473.842 125.358 463.004 117.127C457.086 112.575 450.932 108.339 444.566 104.437C446.344 105.728 448.107 107.042 449.846 108.363C460.669 116.61 471.585 126.24 475.458 139.278C479.331 152.316 472.829 169.273 459.432 171.777C438.034 175.78 429.685 154.774 412.4 176.051C399.366 192.103 392.084 212.568 393.777 233.335C395.323 252.139 403.602 270.185 402.922 289.036C401.987 314.996 381.88 339.063 356.493 344.597C352.102 345.555 347.533 346.042 343.513 348.044C336.78 351.406 332.799 358.377 327.813 364.011C317.291 375.89 301.567 382.189 285.828 384.198C279.272 385.004 272.66 385.263 266.061 384.971C261.418 387.405 256.561 389.407 251.551 390.953C267.275 393.125 283.246 395.011 298.978 393.001C314.709 390.992 330.449 384.693 340.97 372.806C345.956 367.172 349.937 360.209 356.671 356.847C360.69 354.837 365.259 354.358 369.642 353.4C395.037 347.858 415.144 323.799 416.08 297.831C416.76 278.981 408.457 260.934 406.927 242.138C405.241 221.371 412.524 200.898 425.557 184.853C442.843 163.577 451.184 184.575 472.59 180.58C485.979 178.037 492.48 161.103 488.607 148.042Z" fill="black"/>
</g>
<defs>
<clipPath id="clip0_51_160">
<rect width="828" height="648" fill="white"/>
</clipPath>
</defs>
</svg>
