<svg width="764" height="701" viewBox="0 0 764 701" fill="none" xmlns="http://www.w3.org/2000/svg">
<g opacity="0.15" clip-path="url(#clip0_51_72)">
<g opacity="0.3">
<path d="M471.119 389.318H371.03C367.486 389.318 364.612 392.192 364.612 395.737V417.042C364.612 420.588 367.486 423.462 371.03 423.462H471.119C474.664 423.462 477.537 420.588 477.537 417.042V395.737C477.537 392.192 474.664 389.318 471.119 389.318Z" fill="#F2F2F2"/>
<path d="M589.296 423.462H489.207C485.663 423.462 482.789 426.336 482.789 429.881V451.186C482.789 454.731 485.663 457.605 489.207 457.605H589.296C592.841 457.605 595.714 454.731 595.714 451.186V429.881C595.714 426.336 592.841 423.462 589.296 423.462Z" fill="#F2F2F2"/>
<path d="M707.481 457.614H607.393C603.848 457.614 600.975 460.488 600.975 464.033V485.338C600.975 488.884 603.848 491.757 607.393 491.757H707.481C711.026 491.757 713.899 488.884 713.899 485.338V464.033C713.899 460.488 711.026 457.614 707.481 457.614Z" fill="#F2F2F2"/>
<path d="M471.119 338.094H371.03C367.486 338.094 364.612 340.968 364.612 344.513V365.818C364.612 369.363 367.486 372.237 371.03 372.237H471.119C474.664 372.237 477.537 369.363 477.537 365.818V344.513C477.537 340.968 474.664 338.094 471.119 338.094Z" fill="#F2F2F2"/>
<path d="M589.296 372.246H489.207C485.663 372.246 482.789 375.12 482.789 378.665V399.971C482.789 403.516 485.663 406.39 489.207 406.39H589.296C592.841 406.39 595.714 403.516 595.714 399.971V378.665C595.714 375.12 592.841 372.246 589.296 372.246Z" fill="#F2F2F2"/>
<path d="M707.481 406.39H607.393C603.848 406.39 600.975 409.264 600.975 412.809V434.114C600.975 437.659 603.848 440.533 607.393 440.533H707.481C711.026 440.533 713.899 437.659 713.899 434.114V412.809C713.899 409.264 711.026 406.39 707.481 406.39Z" fill="#F2F2F2"/>
<path d="M471.119 269.806H371.03C367.486 269.806 364.612 272.68 364.612 276.225V297.531C364.612 301.076 367.486 303.95 371.03 303.95H471.119C474.664 303.95 477.537 301.076 477.537 297.531V276.225C477.537 272.68 474.664 269.806 471.119 269.806Z" fill="#F2F2F2"/>
<path d="M589.296 303.95H489.207C485.663 303.95 482.789 306.824 482.789 310.369V331.674C482.789 335.22 485.663 338.094 489.207 338.094H589.296C592.841 338.094 595.714 335.22 595.714 331.674V310.369C595.714 306.824 592.841 303.95 589.296 303.95Z" fill="#F2F2F2"/>
<path d="M707.481 338.094H607.393C603.848 338.094 600.975 340.968 600.975 344.513V365.818C600.975 369.363 603.848 372.237 607.393 372.237H707.481C711.026 372.237 713.899 369.363 713.899 365.818V344.513C713.899 340.968 711.026 338.094 707.481 338.094Z" fill="#F2F2F2"/>
<path d="M471.119 218.582H371.03C367.486 218.582 364.612 221.456 364.612 225.001V246.307C364.612 249.852 367.486 252.726 371.03 252.726H471.119C474.664 252.726 477.537 249.852 477.537 246.307V225.001C477.537 221.456 474.664 218.582 471.119 218.582Z" fill="#F2F2F2"/>
<path d="M589.296 252.726H489.207C485.663 252.726 482.789 255.6 482.789 259.145V280.45C482.789 283.996 485.663 286.87 489.207 286.87H589.296C592.841 286.87 595.714 283.996 595.714 280.45V259.145C595.714 255.6 592.841 252.726 589.296 252.726Z" fill="#F2F2F2"/>
<path d="M707.481 286.878H607.393C603.848 286.878 600.975 289.752 600.975 293.297V314.603C600.975 318.148 603.848 321.022 607.393 321.022H707.481C711.026 321.022 713.899 318.148 713.899 314.603V293.297C713.899 289.752 711.026 286.878 707.481 286.878Z" fill="#F2F2F2"/>
<path opacity="0.1" d="M471.119 389.318H371.03C367.486 389.318 364.612 392.192 364.612 395.737V417.042C364.612 420.588 367.486 423.462 371.03 423.462H471.119C474.664 423.462 477.537 420.588 477.537 417.042V395.737C477.537 392.192 474.664 389.318 471.119 389.318Z" fill="#20B1F0"/>
<path opacity="0.1" d="M589.296 423.462H489.207C485.663 423.462 482.789 426.336 482.789 429.881V451.186C482.789 454.731 485.663 457.605 489.207 457.605H589.296C592.841 457.605 595.714 454.731 595.714 451.186V429.881C595.714 426.336 592.841 423.462 589.296 423.462Z" fill="#20B1F0"/>
<path opacity="0.1" d="M707.481 457.614H607.393C603.848 457.614 600.975 460.488 600.975 464.033V485.338C600.975 488.884 603.848 491.757 607.393 491.757H707.481C711.026 491.757 713.899 488.884 713.899 485.338V464.033C713.899 460.488 711.026 457.614 707.481 457.614Z" fill="#20B1F0"/>
<path opacity="0.1" d="M471.119 338.094H371.03C367.486 338.094 364.612 340.968 364.612 344.513V365.818C364.612 369.363 367.486 372.237 371.03 372.237H471.119C474.664 372.237 477.537 369.363 477.537 365.818V344.513C477.537 340.968 474.664 338.094 471.119 338.094Z" fill="#20B1F0"/>
<path opacity="0.1" d="M589.296 372.246H489.207C485.663 372.246 482.789 375.12 482.789 378.665V399.971C482.789 403.516 485.663 406.39 489.207 406.39H589.296C592.841 406.39 595.714 403.516 595.714 399.971V378.665C595.714 375.12 592.841 372.246 589.296 372.246Z" fill="#20B1F0"/>
<path opacity="0.1" d="M707.481 406.39H607.393C603.848 406.39 600.975 409.264 600.975 412.809V434.114C600.975 437.659 603.848 440.533 607.393 440.533H707.481C711.026 440.533 713.899 437.659 713.899 434.114V412.809C713.899 409.264 711.026 406.39 707.481 406.39Z" fill="#20B1F0"/>
<path opacity="0.1" d="M471.119 269.806H371.03C367.486 269.806 364.612 272.68 364.612 276.225V297.531C364.612 301.076 367.486 303.95 371.03 303.95H471.119C474.664 303.95 477.537 301.076 477.537 297.531V276.225C477.537 272.68 474.664 269.806 471.119 269.806Z" fill="#20B1F0"/>
<path opacity="0.1" d="M589.296 303.95H489.207C485.663 303.95 482.789 306.824 482.789 310.369V331.674C482.789 335.22 485.663 338.094 489.207 338.094H589.296C592.841 338.094 595.714 335.22 595.714 331.674V310.369C595.714 306.824 592.841 303.95 589.296 303.95Z" fill="#20B1F0"/>
<path opacity="0.1" d="M707.481 338.094H607.393C603.848 338.094 600.975 340.968 600.975 344.513V365.818C600.975 369.363 603.848 372.237 607.393 372.237H707.481C711.026 372.237 713.899 369.363 713.899 365.818V344.513C713.899 340.968 711.026 338.094 707.481 338.094Z" fill="#20B1F0"/>
<path opacity="0.1" d="M471.119 218.582H371.03C367.486 218.582 364.612 221.456 364.612 225.001V246.307C364.612 249.852 367.486 252.726 371.03 252.726H471.119C474.664 252.726 477.537 249.852 477.537 246.307V225.001C477.537 221.456 474.664 218.582 471.119 218.582Z" fill="#20B1F0"/>
<path opacity="0.1" d="M589.296 252.726H489.207C485.663 252.726 482.789 255.6 482.789 259.145V280.45C482.789 283.996 485.663 286.87 489.207 286.87H589.296C592.841 286.87 595.714 283.996 595.714 280.45V259.145C595.714 255.6 592.841 252.726 589.296 252.726Z" fill="#20B1F0"/>
<path opacity="0.1" d="M707.481 286.878H607.393C603.848 286.878 600.975 289.752 600.975 293.297V314.603C600.975 318.148 603.848 321.022 607.393 321.022H707.481C711.026 321.022 713.899 318.148 713.899 314.603V293.297C713.899 289.752 711.026 286.878 707.481 286.878Z" fill="#20B1F0"/>
</g>
<g opacity="0.3">
<path d="M28.8522 170.736H-71.2366C-74.7812 170.736 -77.6547 173.61 -77.6547 177.155V198.46C-77.6547 202.006 -74.7812 204.88 -71.2366 204.88H28.8522C32.3968 204.88 35.2702 202.006 35.2702 198.46V177.155C35.2702 173.61 32.3968 170.736 28.8522 170.736Z" fill="#F2F2F2"/>
<path d="M147.029 204.879H46.9402C43.3956 204.879 40.5222 207.753 40.5222 211.299V232.604C40.5222 236.149 43.3956 239.023 46.9402 239.023H147.029C150.574 239.023 153.447 236.149 153.447 232.604V211.299C153.447 207.753 150.574 204.879 147.029 204.879Z" fill="#F2F2F2"/>
<path d="M265.215 239.032H165.126C161.581 239.032 158.708 241.906 158.708 245.451V266.756C158.708 270.301 161.581 273.175 165.126 273.175H265.215C268.759 273.175 271.633 270.301 271.633 266.756V245.451C271.633 241.906 268.759 239.032 265.215 239.032Z" fill="#F2F2F2"/>
<path d="M28.8522 119.512H-71.2366C-74.7812 119.512 -77.6547 122.386 -77.6547 125.931V147.236C-77.6547 150.781 -74.7812 153.655 -71.2366 153.655H28.8522C32.3968 153.655 35.2702 150.781 35.2702 147.236V125.931C35.2702 122.386 32.3968 119.512 28.8522 119.512Z" fill="#F2F2F2"/>
<path d="M147.029 153.664H46.9402C43.3956 153.664 40.5222 156.538 40.5222 160.083V181.389C40.5222 184.934 43.3956 187.808 46.9402 187.808H147.029C150.574 187.808 153.447 184.934 153.447 181.389V160.083C153.447 156.538 150.574 153.664 147.029 153.664Z" fill="#F2F2F2"/>
<path d="M265.215 187.808H165.126C161.581 187.808 158.708 190.682 158.708 194.227V215.532C158.708 219.077 161.581 221.951 165.126 221.951H265.215C268.759 221.951 271.633 219.077 271.633 215.532V194.227C271.633 190.682 268.759 187.808 265.215 187.808Z" fill="#F2F2F2"/>
<path d="M28.8522 51.2241H-71.2366C-74.7812 51.2241 -77.6547 54.0981 -77.6547 57.6433V78.9486C-77.6547 82.4938 -74.7812 85.3678 -71.2366 85.3678H28.8522C32.3968 85.3678 35.2702 82.4938 35.2702 78.9486V57.6433C35.2702 54.0981 32.3968 51.2241 28.8522 51.2241Z" fill="#F2F2F2"/>
<path d="M147.029 85.3679H46.9402C43.3956 85.3679 40.5222 88.2419 40.5222 91.7871V113.092C40.5222 116.638 43.3956 119.512 46.9402 119.512H147.029C150.574 119.512 153.447 116.638 153.447 113.092V91.7871C153.447 88.2419 150.574 85.3679 147.029 85.3679Z" fill="#F2F2F2"/>
<path d="M265.215 119.512H165.126C161.581 119.512 158.708 122.386 158.708 125.931V147.236C158.708 150.781 161.581 153.655 165.126 153.655H265.215C268.759 153.655 271.633 150.781 271.633 147.236V125.931C271.633 122.386 268.759 119.512 265.215 119.512Z" fill="#F2F2F2"/>
<path d="M28.8522 0H-71.2366C-74.7812 0 -77.6547 2.87398 -77.6547 6.41922V27.7245C-77.6547 31.2697 -74.7812 34.1437 -71.2366 34.1437H28.8522C32.3968 34.1437 35.2702 31.2697 35.2702 27.7245V6.41922C35.2702 2.87398 32.3968 0 28.8522 0Z" fill="#F2F2F2"/>
<path d="M147.029 34.1438H46.9402C43.3956 34.1438 40.5222 37.0178 40.5222 40.563V61.8683C40.5222 65.4135 43.3956 68.2875 46.9402 68.2875H147.029C150.574 68.2875 153.447 65.4135 153.447 61.8683V40.563C153.447 37.0178 150.574 34.1438 147.029 34.1438Z" fill="#F2F2F2"/>
<path d="M265.215 68.2961H165.126C161.581 68.2961 158.708 71.1701 158.708 74.7154V96.0206C158.708 99.5659 161.581 102.44 165.126 102.44H265.215C268.759 102.44 271.633 99.5659 271.633 96.0206V74.7154C271.633 71.1701 268.759 68.2961 265.215 68.2961Z" fill="#F2F2F2"/>
<path opacity="0.1" d="M28.8522 170.736H-71.2366C-74.7812 170.736 -77.6547 173.61 -77.6547 177.155V198.46C-77.6547 202.006 -74.7812 204.88 -71.2366 204.88H28.8522C32.3968 204.88 35.2702 202.006 35.2702 198.46V177.155C35.2702 173.61 32.3968 170.736 28.8522 170.736Z" fill="#20B1F0"/>
<path opacity="0.1" d="M147.029 204.879H46.9402C43.3956 204.879 40.5222 207.753 40.5222 211.299V232.604C40.5222 236.149 43.3956 239.023 46.9402 239.023H147.029C150.574 239.023 153.447 236.149 153.447 232.604V211.299C153.447 207.753 150.574 204.879 147.029 204.879Z" fill="#20B1F0"/>
<path opacity="0.1" d="M265.215 239.032H165.126C161.581 239.032 158.708 241.906 158.708 245.451V266.756C158.708 270.301 161.581 273.175 165.126 273.175H265.215C268.759 273.175 271.633 270.301 271.633 266.756V245.451C271.633 241.906 268.759 239.032 265.215 239.032Z" fill="#20B1F0"/>
<path opacity="0.1" d="M28.8522 119.512H-71.2366C-74.7812 119.512 -77.6547 122.386 -77.6547 125.931V147.236C-77.6547 150.781 -74.7812 153.655 -71.2366 153.655H28.8522C32.3968 153.655 35.2702 150.781 35.2702 147.236V125.931C35.2702 122.386 32.3968 119.512 28.8522 119.512Z" fill="#20B1F0"/>
<path opacity="0.1" d="M147.029 153.664H46.9402C43.3956 153.664 40.5222 156.538 40.5222 160.083V181.389C40.5222 184.934 43.3956 187.808 46.9402 187.808H147.029C150.574 187.808 153.447 184.934 153.447 181.389V160.083C153.447 156.538 150.574 153.664 147.029 153.664Z" fill="#20B1F0"/>
<path opacity="0.1" d="M265.215 187.808H165.126C161.581 187.808 158.708 190.682 158.708 194.227V215.532C158.708 219.077 161.581 221.951 165.126 221.951H265.215C268.759 221.951 271.633 219.077 271.633 215.532V194.227C271.633 190.682 268.759 187.808 265.215 187.808Z" fill="#20B1F0"/>
<path opacity="0.1" d="M28.8522 51.2241H-71.2366C-74.7812 51.2241 -77.6547 54.0981 -77.6547 57.6433V78.9486C-77.6547 82.4938 -74.7812 85.3678 -71.2366 85.3678H28.8522C32.3968 85.3678 35.2702 82.4938 35.2702 78.9486V57.6433C35.2702 54.0981 32.3968 51.2241 28.8522 51.2241Z" fill="#20B1F0"/>
<path opacity="0.1" d="M147.029 85.3679H46.9402C43.3956 85.3679 40.5222 88.2419 40.5222 91.7871V113.092C40.5222 116.638 43.3956 119.512 46.9402 119.512H147.029C150.574 119.512 153.447 116.638 153.447 113.092V91.7871C153.447 88.2419 150.574 85.3679 147.029 85.3679Z" fill="#20B1F0"/>
<path opacity="0.1" d="M265.215 119.512H165.126C161.581 119.512 158.708 122.386 158.708 125.931V147.236C158.708 150.781 161.581 153.655 165.126 153.655H265.215C268.759 153.655 271.633 150.781 271.633 147.236V125.931C271.633 122.386 268.759 119.512 265.215 119.512Z" fill="#20B1F0"/>
<path opacity="0.1" d="M28.8522 0H-71.2366C-74.7812 0 -77.6547 2.87398 -77.6547 6.41922V27.7245C-77.6547 31.2697 -74.7812 34.1437 -71.2366 34.1437H28.8522C32.3968 34.1437 35.2702 31.2697 35.2702 27.7245V6.41922C35.2702 2.87398 32.3968 0 28.8522 0Z" fill="#20B1F0"/>
<path opacity="0.1" d="M147.029 34.1438H46.9402C43.3956 34.1438 40.5222 37.0178 40.5222 40.563V61.8683C40.5222 65.4135 43.3956 68.2875 46.9402 68.2875H147.029C150.574 68.2875 153.447 65.4135 153.447 61.8683V40.563C153.447 37.0178 150.574 34.1438 147.029 34.1438Z" fill="#20B1F0"/>
<path opacity="0.1" d="M265.215 68.2961H165.126C161.581 68.2961 158.708 71.1701 158.708 74.7154V96.0206C158.708 99.5659 161.581 102.44 165.126 102.44H265.215C268.759 102.44 271.633 99.5659 271.633 96.0206V74.7154C271.633 71.1701 268.759 68.2961 265.215 68.2961Z" fill="#20B1F0"/>
</g>
<g opacity="0.1">
<path d="M74.3487 477.079C74.3618 481.977 73.858 486.862 72.8457 491.654C72.6556 492.518 72.4484 493.442 72.241 494.306C66.9114 515.707 51.8553 531.362 33.8968 532.321C33.3008 532.321 32.6962 532.372 32.0742 532.372C13.0706 532.372 -2.97889 515.957 -8.274 493.425C-8.42949 492.82 -8.55907 492.224 -8.68864 491.619C-9.70097 486.828 -10.2048 481.942 -10.1916 477.044C-10.1916 446.469 8.72564 421.751 32.0742 421.751C55.4228 421.751 74.3487 446.503 74.3487 477.079Z" fill="#3F3D56"/>
<path opacity="0.1" d="M74.3487 477.079C74.3618 481.977 73.858 486.862 72.8457 491.654C72.6556 492.518 72.4483 493.442 72.241 494.306C71.6018 494.306 70.9799 494.306 70.3493 494.228C65.6987 493.974 61.0765 493.341 56.5285 492.336C52.4952 493.58 48.375 494.521 44.202 495.153C41.0015 495.621 37.7774 495.909 34.5447 496.017C33.4563 496.017 32.3679 496.077 31.2795 496.077C27.4085 496.075 23.5418 495.818 19.7046 495.308C13.5114 494.473 7.42841 492.96 1.56471 490.799C-1.64875 491.857 -4.92265 492.723 -8.23946 493.39C-8.39494 492.786 -8.52451 492.19 -8.65408 491.585C-9.66641 486.793 -10.1702 481.907 -10.1571 477.01C-10.1571 446.434 8.76017 421.716 32.1088 421.716C55.4573 421.716 74.3487 446.503 74.3487 477.079Z" fill="black"/>
<path d="M164.521 373.983C164.539 360.531 161.388 347.265 155.322 335.26L105.61 350.716L149.24 325.056C141.925 314.479 132.327 305.681 121.155 299.313C109.983 292.944 97.524 289.167 84.697 288.26C82.6589 285.162 80.4227 282.198 78.0025 279.388L6.54014 301.617L65.0973 267.18C53.898 258.597 40.758 252.905 26.8379 250.607C12.9177 248.308 -1.35427 249.473 -14.7176 253.998C-28.0809 258.524 -40.1243 266.272 -49.7842 276.557C-59.4441 286.842 -66.4232 299.347 -70.105 312.97L-8.93918 383.391L-75.3829 335.424C-92.1851 347.344 -104.147 364.904 -109.089 384.906C-114.032 404.908 -111.626 426.02 -102.309 444.396C-92.9932 462.772 -77.3869 477.189 -58.3336 485.021C-39.2803 492.854 -18.0479 493.579 1.49554 487.066C19.1892 493.564 38.5222 494.095 56.5457 488.578C69.1035 491.355 82.1242 491.277 94.6483 488.352C107.172 485.427 118.881 479.729 128.911 471.677C138.94 463.625 147.036 453.425 152.601 441.828C158.166 430.232 161.059 417.534 161.066 404.67C161.066 402.761 160.997 400.869 160.876 398.986C163.316 390.876 164.544 382.451 164.521 373.983Z" fill="#20B1F0"/>
<path opacity="0.1" d="M163.044 389.923C136.79 384.945 109.868 384.602 83.4964 388.912C53.652 393.854 23.1425 404.714 -6.05406 396.774C-23.1833 392.109 -38.0148 381.326 -54.7293 375.348C-70.8763 369.696 -88.2762 368.646 -104.985 372.315C-111.359 387.55 -113.211 404.297 -110.32 420.557C-107.429 436.816 -99.9183 451.898 -88.6849 464.001C-77.4514 476.104 -62.9708 484.716 -46.974 488.806C-30.9773 492.896 -14.1412 492.292 1.52148 487.066C19.2073 493.558 38.5302 494.089 56.5457 488.578C69.1036 491.355 82.1243 491.278 94.6484 488.352C107.172 485.427 118.881 479.729 128.911 471.677C138.94 463.625 147.036 453.425 152.601 441.828C158.166 430.232 161.059 417.534 161.066 404.67C161.066 402.761 160.997 400.869 160.876 398.986C161.763 396.007 162.487 392.981 163.044 389.923Z" fill="black"/>
</g>
<path opacity="0.1" d="M291.5 690.39C552.455 690.39 764 651.903 764 604.426C764 556.95 552.455 518.462 291.5 518.462C30.5455 518.462 -181 556.95 -181 604.426C-181 651.903 30.5455 690.39 291.5 690.39Z" fill="#20B1F0"/>
<path d="M446.708 614.336C447.344 611.738 448.605 609.334 450.382 607.334C452.158 605.335 454.397 603.8 456.902 602.863C459.407 601.926 462.103 601.616 464.756 601.959C467.408 602.302 469.937 603.289 472.121 604.832L472.795 605.325C487.246 616.159 478.669 636.03 472.795 636.479C466.921 636.929 455.622 637.412 455.622 637.412C455.622 637.412 442.311 631.918 446.708 614.336Z" fill="#192534"/>
<path d="M577.09 600.833V604.444C577.09 604.444 518.352 608.504 512.081 608.504H500.342C500.342 608.504 500.169 608.686 499.884 609.014C499.4 609.558 498.579 610.518 497.672 611.71C495.824 614.112 493.621 617.464 493.111 620.246C492.248 625.213 489.052 627.019 489.052 627.019L477.313 623.866L465.988 610.319L464.338 608.729L459.639 604.245L455.622 600.401L455.821 598.241V597.912C456.781 593.272 458.01 588.691 459.501 584.193C459.501 584.072 459.579 583.942 459.622 583.821C462.878 574.041 468.312 562.162 476.138 558.628C476.734 558.36 477.356 558.101 478.021 557.868L478.816 557.591C493.828 552.563 522.196 554.559 522.196 554.559C522.196 554.559 543.86 560.883 545.674 563.596C547.488 566.309 568.02 588.651 568.02 588.651C569.823 590.01 571.484 591.547 572.979 593.238C574.905 595.372 576.693 598.059 577.09 600.833Z" fill="#20B1F0"/>
<path opacity="0.1" d="M453.834 630.639C457.327 630.639 460.157 626.191 460.157 620.704C460.157 615.216 457.327 610.768 453.834 610.768C450.342 610.768 447.511 615.216 447.511 620.704C447.511 626.191 450.342 630.639 453.834 630.639Z" fill="white"/>
<path opacity="0.1" d="M480.025 561.997C480.025 561.997 474.842 569.946 469.366 580.141C469.363 580.166 469.363 580.193 469.366 580.218C467.906 582.931 466.42 585.791 465.003 588.72L464.943 588.858C464.943 588.858 461.946 586.482 459.587 584.167C459.587 584.046 459.665 583.916 459.708 583.795C462.965 574.015 468.398 562.136 476.224 558.602C476.82 558.334 477.442 558.075 478.107 557.842L480.025 561.997Z" fill="black"/>
<path opacity="0.1" d="M464.675 588.642C464.675 588.642 496.731 598.146 503.045 594.059C503.045 594.059 505.308 565.16 490.408 563.354C490.408 563.354 481.83 561.09 480.042 562.49C478.254 563.89 464.675 588.642 464.675 588.642Z" fill="white"/>
<path opacity="0.1" d="M506.207 567.414C506.207 567.414 512.53 591.346 517.047 591.804C521.565 592.262 567.148 591.346 565.351 588.184C563.555 585.022 543.679 564.71 543.679 564.71L506.207 567.414Z" fill="white"/>
<path d="M498.45 610.716C498.45 610.716 506.656 599.925 521.107 610.768C535.559 621.611 526.973 641.473 521.107 641.922C515.242 642.372 503.995 642.83 503.995 642.83C503.995 642.83 486.175 635.503 498.45 610.716Z" fill="#192534"/>
<path d="M583.681 613.463C583.08 611.758 582.131 610.196 580.896 608.876C579.66 607.555 578.165 606.506 576.503 605.793C574.842 605.08 573.05 604.72 571.242 604.734C569.434 604.749 567.649 605.138 565.999 605.878C564.385 606.639 562.856 607.568 561.438 608.651C548.576 618.293 556.255 635.978 561.438 636.384C563.313 636.523 565.809 636.669 568.236 636.799C570.721 636.931 573.203 636.484 575.487 635.494C577.77 634.505 579.792 632.998 581.395 631.094C582.997 629.19 584.136 626.939 584.722 624.52C585.307 622.101 585.324 619.579 584.77 617.153C584.477 615.903 584.114 614.672 583.681 613.463Z" fill="#192534"/>
<path opacity="0.1" d="M502.147 636.056C505.639 636.056 508.47 631.608 508.47 626.121C508.47 620.633 505.639 616.185 502.147 616.185C498.655 616.185 495.824 620.633 495.824 626.121C495.824 631.608 498.655 636.056 502.147 636.056Z" fill="white"/>
<path opacity="0.1" d="M519.751 607.157C519.751 607.157 518.887 594.059 532.846 599.476C546.806 604.893 537.813 610.768 537.813 610.768L519.751 607.157Z" fill="white"/>
<path opacity="0.1" d="M577.09 600.832V602.638L574.836 603.502L570.232 602.638C570.232 602.638 569.247 595.243 573.022 593.135C574.905 595.372 576.693 598.059 577.09 600.832Z" fill="white"/>
<path opacity="0.1" d="M577.09 600.919V604.444C577.09 604.444 518.352 608.505 512.081 608.505H512.029C508.781 606.777 505.533 606.008 502.803 607.157C501.972 607.501 501.191 607.954 500.48 608.505C500.272 608.669 500.074 608.841 499.884 609.014C499.023 609.803 498.278 610.711 497.672 611.71C493.63 618.25 494.494 628.376 494.494 628.376C482.754 631.987 470.566 622.509 470.566 622.509C468.355 615.874 466.29 611.546 464.399 608.686C462.671 606.094 461.099 604.824 459.7 604.202L455.622 600.401L455.821 598.241L488.585 622.069C488.585 622.069 491.747 601.748 498.951 603.105C506.155 604.461 520.624 604.461 520.624 604.461L577.09 600.919Z" fill="black"/>
<path d="M453.834 598.12C453.834 598.12 451.122 604.893 453.834 605.351C456.547 605.809 462.637 600.167 470.54 623.866C470.54 623.866 482.729 633.369 494.468 629.732C494.468 629.732 493.068 612.574 502.803 608.504C512.538 604.435 528.778 624.764 528.778 624.764V629.283L567.157 625.213C567.157 625.213 578.896 616.185 578.447 602.189L520.658 605.8C520.658 605.8 506.207 605.8 498.985 604.444C491.764 603.087 488.62 623.451 488.62 623.451L453.834 598.12Z" fill="#20B1F0"/>
<path d="M291.31 474.616H291.301C277.963 474.616 267.149 485.432 267.149 498.773V498.781C267.149 512.123 277.963 522.938 291.301 522.938H291.31C304.649 522.938 315.462 512.123 315.462 498.781V498.773C315.462 485.432 304.649 474.616 291.31 474.616Z" fill="#192534"/>
<path d="M278.655 560.952C281.895 558.11 285.186 555.215 287.518 551.595C289.66 548.278 290.921 544.485 292.105 540.718C295.485 529.953 298.396 519.053 300.838 508.017C287.544 505.987 277.619 494.246 264.618 490.798C264.308 490.712 254.365 550.464 253.64 555.924C253.044 560.434 247.895 581.972 253.76 582.093C256.896 582.162 263.444 574.317 265.759 572.253L278.655 560.952Z" fill="#3F3D56"/>
<path opacity="0.1" d="M278.655 560.952C281.895 558.11 285.186 555.215 287.518 551.595C289.66 548.278 290.921 544.485 292.105 540.718C295.485 529.953 298.396 519.053 300.838 508.017C287.544 505.987 277.619 494.246 264.618 490.798C264.308 490.712 254.365 550.464 253.64 555.924C253.044 560.434 247.895 581.972 253.76 582.093C256.896 582.162 263.444 574.317 265.759 572.253L278.655 560.952Z" fill="black"/>
<path d="M114.369 410.191C112.9 410.416 111.345 410.528 110.136 411.383C108.408 412.593 107.968 414.839 107.147 416.792C106.07 419.298 104.244 421.41 101.921 422.839C99.9431 424.049 97.5331 424.861 96.3497 426.848C95.681 428.187 95.363 429.673 95.4255 431.168C95.2696 435.594 95.4689 440.026 96.0215 444.421C96.2979 446.624 96.6607 448.87 96.2029 451.039C95.676 453.57 94.0865 455.722 92.5749 457.821C88.9469 462.841 85.3967 468.353 85.103 474.539C84.9562 477.649 85.6472 480.837 84.8611 483.852C83.4704 489.2 77.8039 492.69 76.6982 498.099C76.37 499.697 76.4563 501.391 75.8344 502.885C74.746 505.477 71.7486 506.894 70.9798 509.564C70.4011 511.568 71.2476 513.685 71.3081 515.767C71.3945 518.817 69.7964 521.633 68.2589 524.26L59.2667 539.552C56.347 544.511 53.3583 549.695 52.8659 555.431C52.4253 560.52 54.0061 565.557 55.7424 570.36C59.6036 581.03 65.3392 592.331 75.9208 596.435C82.1488 598.854 89.0851 598.335 95.7451 597.783C104.867 597.031 114.049 596.262 122.851 593.765C127.213 592.53 131.489 590.88 135.895 589.998C138.832 589.419 141.846 589.134 144.679 588.193C147.741 587.092 150.45 585.187 152.523 582.679C154.596 580.171 155.956 577.152 156.462 573.937C160.228 575.423 163.718 570.481 163.182 566.473C162.647 562.464 159.952 559.068 158.863 555.181C157.308 549.815 158.863 543.992 161.455 539.051C164.046 534.109 167.622 529.737 170.447 524.925C173.594 519.538 175.78 513.644 176.908 507.507C178.42 499.222 177.962 490.712 177.495 482.306L175.716 450.175C175.388 444.291 175.016 438.218 172.425 432.896C169.583 427.099 164.4 422.848 159.226 418.986C151.59 413.176 143.583 407.872 135.255 403.106C129.883 400.1 130.263 401.266 125.987 404.834C122.675 407.646 118.657 409.498 114.369 410.191Z" fill="#3F3D56"/>
<path d="M186.98 499.585C180.873 504.406 174.688 509.296 169.989 515.499C164.313 523.042 161.092 532.147 160.763 541.582C160.709 545.998 161.018 550.41 161.688 554.775C162.612 561.903 164.279 569.842 170.283 573.782C174.066 576.262 179.266 576.884 181.849 580.599C182.661 581.765 183.136 583.191 184.086 584.219C185.814 586.085 188.509 586.491 190.997 586.629C194.714 586.838 198.442 586.722 202.14 586.283C206.364 585.774 210.657 584.849 214.838 585.644C222.975 587.173 229.047 594.854 237.296 595.882C244.146 596.746 250.564 592.763 256.3 588.97C262.217 585.057 268.393 580.866 271.598 574.534C274.716 568.382 274.544 561.142 274.302 554.239C274.034 546.576 273.758 538.817 271.71 531.422C271.074 529.486 270.586 527.505 270.25 525.495C269.637 520.311 271.978 515.214 273.706 510.255C276.392 502.713 277.567 493.416 272.229 487.455C269.974 484.932 266.838 483.377 263.66 482.271C249.623 477.226 234.126 479.144 219.727 481.407C205.984 483.49 197.76 491.092 186.98 499.585Z" fill="#3F3D56"/>
<path d="M306.012 469.727C300.449 478.081 294.869 486.496 290.852 495.645C288.112 502.286 285.804 509.097 283.942 516.035C278.396 535.206 272.894 554.792 261.82 571.389C260.23 573.773 258.468 576.253 258.304 579.113C258.149 581.791 259.427 584.296 260.662 586.681C263.254 591.726 265.966 596.824 269.663 601.161C273.36 605.498 277.783 608.781 282.24 612.133C291.491 619.045 301.771 626.371 313.337 625.853C315.73 625.741 318.286 625.188 319.885 623.399C321.483 621.611 321.707 619.14 321.422 616.842C320.558 609.731 315.203 604.142 310.348 598.871C305.494 593.601 300.613 587.441 301.002 580.253C301.304 574.318 305.191 569.255 308.914 564.624C313.173 559.319 317.44 554.023 321.457 548.537C338.828 524.821 351.37 497.857 361.313 470.185C365.502 458.504 369.311 446.236 368.007 433.898C358.505 431.566 339.502 423.773 331.477 431.816C326.614 436.689 323.176 443.911 319.384 449.657L306.012 469.727Z" fill="#FBBEBE"/>
<path d="M386.242 388.609C380.222 399.111 375.511 410.311 372.214 421.958C371.41 424.775 370.693 427.747 371.307 430.598C371.972 433.656 374.054 436.17 375.626 438.866C377.198 441.561 378.304 444.974 376.878 447.756C370.141 448.283 363.463 446.443 356.95 444.62L336.53 438.918C334.838 438.592 333.251 437.856 331.909 436.775C329.542 434.537 329.723 430.779 330.181 427.565C334.18 401.249 347.025 376.989 351.837 350.82C352.536 347.044 353.27 342.863 356.277 340.452C364.915 333.627 384.471 339.407 388.946 349.29C393.947 360.263 391.9 378.751 386.242 388.609Z" fill="#20B1F0"/>
<path d="M276.928 298.671C276.159 299.068 275.295 299.535 275.062 300.347C275.01 300.789 275.056 301.237 275.196 301.66C275.336 302.082 275.568 302.469 275.874 302.792L284.59 315.06C293.184 327.156 301.797 339.329 311.739 350.362C319.244 358.685 327.464 366.335 336.305 373.222C338.793 375.157 341.445 377.17 342.663 380.082C337.231 363.993 338.196 346.431 345.358 331.035C348.209 324.987 351.975 319.38 354.938 313.367C355.217 313.036 355.407 312.64 355.488 312.215C355.569 311.789 355.539 311.351 355.401 310.941C355.263 310.53 355.021 310.163 354.699 309.874C354.377 309.584 353.987 309.383 353.564 309.289C346.015 305.401 337.757 303.051 330.242 299.094C324.342 295.984 319.012 291.941 313.717 287.958C308.992 284.407 302.704 278.135 296.873 276.64C290.576 275.016 290.826 280.761 288.796 285.556C286.462 291.16 282.271 295.791 276.928 298.671Z" fill="#FBBEBE"/>
<path opacity="0.1" d="M276.928 298.671C276.159 299.068 275.295 299.535 275.062 300.347C275.01 300.789 275.056 301.237 275.196 301.66C275.336 302.082 275.568 302.469 275.874 302.792L284.59 315.06C293.184 327.156 301.797 339.329 311.739 350.362C319.244 358.685 327.464 366.335 336.305 373.222C338.793 375.157 341.445 377.17 342.663 380.082C337.231 363.993 338.196 346.431 345.358 331.035C348.209 324.987 351.975 319.38 354.938 313.367C355.217 313.036 355.407 312.64 355.488 312.215C355.569 311.789 355.539 311.351 355.401 310.941C355.263 310.53 355.021 310.163 354.699 309.874C354.377 309.584 353.987 309.383 353.564 309.289C346.015 305.401 337.757 303.051 330.242 299.094C324.342 295.984 319.012 291.941 313.717 287.958C308.992 284.407 302.704 278.135 296.873 276.64C290.576 275.016 290.826 280.761 288.796 285.556C286.462 291.16 282.271 295.791 276.928 298.671Z" fill="black"/>
<path d="M330.371 347.563C326.424 343.105 321.094 340.158 316.421 336.461C309.7 331.139 304.388 324.279 299.257 317.41C289.841 304.771 280.348 289.288 285.039 274.212C280.055 273.729 275.753 277.824 273.403 282.239C271.054 286.653 269.844 291.682 266.916 295.734C262.468 301.894 254.901 304.762 247.852 307.578C232.358 313.78 217.389 321.219 203.09 329.825C197.346 333.281 191.627 336.988 187.239 342.05C182.54 347.45 179.594 354.146 175.604 360.064C167.829 371.702 156.013 380.436 142.9 385.378C138.581 387.02 133.951 388.298 130.09 390.907C121.815 396.497 118.368 407.642 120.329 417.44C122.29 427.237 128.967 435.583 136.992 441.51C145.016 447.436 154.155 450.935 163.415 454.391C171.178 457.242 178.99 459.961 186.85 462.547C192.634 464.549 198.548 466.154 204.55 467.351C215.598 469.381 226.957 468.88 238.126 470.115C248.336 471.238 258.365 473.822 268.618 474.539C278.871 475.256 289.729 473.891 298.082 467.921C304.725 463.178 309.147 456.015 313.233 448.914C323.84 430.603 333.314 411.658 341.601 392.186C344.045 386.423 366.729 353.783 361.079 349.567C332.634 328.339 342.076 362.068 339.363 359.477C335.735 356.003 333.654 351.269 330.371 347.563Z" fill="#20B1F0"/>
<path d="M295.137 328.037C289.03 315.752 284.901 302.602 280.797 289.522C279.666 285.893 278.526 281.971 279.744 278.377C281.212 274.057 285.911 270.368 284.529 266.039C273.542 269.495 260.783 274.912 258.615 286.239C258.14 288.71 258.226 291.345 257.077 293.574C254.84 297.945 249.139 298.878 244.293 299.621C230.196 301.876 216.185 307.561 206.528 318.076C204.904 319.804 203.375 321.765 201.345 323.061C199.876 323.926 198.314 324.622 196.689 325.134C187.239 328.53 177.521 332.763 171.44 340.755C168.304 344.867 166.3 349.8 162.802 353.619C158.068 358.803 151.098 361.395 145.975 366.224C142.52 369.438 140.058 373.516 137.778 377.637C129.001 393.499 122.566 412.1 127.222 429.63C129.649 438.797 134.996 446.961 137.873 455.998C141.838 468.31 141.449 482.349 148.886 492.932C153.577 499.585 160.833 503.983 168.261 507.3C184.791 514.655 202.951 517.579 220.953 515.784C227.629 515.008 234.26 513.889 240.821 512.432C256.481 509.201 272.306 505.685 286.533 498.375C310.797 485.908 328.255 463.627 344.926 442.028C348.096 437.916 351.292 433.769 353.564 429.069C355.784 424.585 357.123 419.729 358.617 414.96C363.671 398.882 370.78 382.873 370.115 366.043C370.141 364.027 369.744 362.028 368.948 360.176C368.275 358.794 367.221 357.585 366.625 356.194C365.571 353.705 366.046 350.828 365.303 348.228C363.239 340.971 353.702 339.588 346.153 339.649L343.734 382.233C343.363 388.627 342.68 395.72 337.921 400.005C335.885 401.757 333.343 402.815 330.665 403.024C327.988 403.234 325.313 402.585 323.029 401.171C317.95 397.88 317.233 392.134 317.267 386.631C317.319 379.719 316.758 373.386 314.555 366.76C309.994 353.014 301.546 340.953 295.137 328.037Z" fill="#192534"/>
<path d="M298.143 449.389C328.22 464.638 358.471 479.999 385.387 500.302C391.606 504.985 397.653 509.944 404.226 514.126C423.066 526.1 446.44 531.932 460.978 548.865C464.036 552.416 466.627 556.408 470.152 559.483C473.21 561.996 476.629 564.034 480.293 565.531C491.972 570.687 504.619 573.282 517.384 573.143C520.727 573.099 524.165 572.849 527.171 571.415C535.265 567.492 537.105 556.987 537.926 548.027C538.202 544.995 538.262 541.418 535.878 539.535C534.591 538.524 532.89 538.265 531.274 538.014C505.006 533.867 480.768 521.219 458.819 506.194C436.869 491.17 416.751 473.632 395.104 458.175C387.494 452.741 379.703 447.566 371.911 442.391L346.697 425.647C333.36 416.792 319.314 407.668 303.386 406.001C302.48 405.843 301.55 405.906 300.674 406.182C299.274 406.727 298.497 408.178 297.814 409.509C293.141 418.615 287.449 426.883 281.722 435.315C278.655 439.825 278.31 440.991 283.596 443.402C288.356 445.579 293.4 446.987 298.143 449.389Z" fill="#FBBEBE"/>
<path d="M357.244 701C357.588 701 357.917 700.864 358.16 700.621C358.403 700.377 358.54 700.048 358.54 699.704C358.54 699.36 358.403 699.031 358.16 698.788C357.917 698.545 357.588 698.408 357.244 698.408C356.9 698.408 356.571 698.545 356.328 698.788C356.085 699.031 355.948 699.36 355.948 699.704C355.948 700.048 356.085 700.377 356.328 700.621C356.571 700.864 356.9 701 357.244 701Z" fill="black"/>
<path d="M366.694 356.988C412.325 356.988 449.317 319.99 449.317 274.35C449.317 228.711 412.325 191.713 366.694 191.713C321.063 191.713 284.071 228.711 284.071 274.35C284.071 319.99 321.063 356.988 366.694 356.988Z" fill="#FBBEBE"/>
<path d="M301.753 306.576C303.222 299.155 311.739 295.405 319.28 294.904C326.911 294.494 334.515 296.102 341.327 299.566C348.139 303.03 353.918 308.228 358.082 314.637C359.829 310.005 361.006 305.177 361.589 300.261L375.41 301.289C376.953 301.527 378.53 301.385 380.005 300.874C381.785 300.079 382.882 298.282 383.806 296.554C389.853 285.262 393.895 271.404 405.246 265.452V281.003C408.353 280.398 411.28 279.087 413.801 277.171C416.322 275.255 418.369 272.786 419.783 269.953C420.563 274.258 421.802 278.466 423.48 282.506C423.757 283.18 424.146 283.923 424.845 284.096C425.187 284.121 425.53 284.073 425.851 283.955C426.173 283.837 426.466 283.653 426.711 283.413C432.003 279.396 436.792 274.755 440.972 269.59L457.385 298.049C466.867 274.1 467.385 247.531 458.843 223.231C450.302 198.93 433.275 178.531 410.895 165.785C407.1 163.599 403.141 161.712 399.052 160.144C388.367 156.118 376.852 154.83 365.459 154.053C349.263 152.947 332.168 152.99 317.95 160.757C310.305 164.93 303.956 171.081 297.823 177.267C289.531 185.613 281.238 194.434 276.824 205.346C273.775 212.88 272.73 221.044 271.805 229.114C271.244 233.995 270.726 239.04 272.116 243.749C273.084 247.006 274.906 249.935 276.133 253.106C278.172 258.376 278.491 264.13 279.277 269.728C281.021 282.1 285.061 294.038 291.189 304.926C292.485 307.233 294.143 309.686 296.726 310.274C299.309 310.861 302.41 308.01 301.045 305.764" fill="#192534"/>
<path d="M301.753 306.576C303.222 299.155 311.739 295.405 319.28 294.904C326.911 294.494 334.515 296.102 341.327 299.566C348.139 303.03 353.918 308.228 358.082 314.637C359.829 310.005 361.006 305.177 361.589 300.261L375.41 301.289C376.953 301.527 378.53 301.385 380.005 300.874C381.785 300.079 382.882 298.282 383.806 296.554C389.853 285.262 393.895 271.404 405.246 265.452V281.003C408.353 280.398 411.28 279.087 413.801 277.171C416.322 275.255 418.369 272.786 419.783 269.953C420.563 274.258 421.802 278.466 423.48 282.506C423.757 283.18 424.146 283.923 424.845 284.096C425.187 284.121 425.53 284.073 425.851 283.955C426.173 283.837 426.466 283.653 426.711 283.413C432.003 279.396 436.792 274.755 440.972 269.59L457.385 298.049C466.867 274.1 467.385 247.531 458.843 223.231C450.302 198.93 433.275 178.531 410.895 165.785C407.1 163.599 403.141 161.712 399.052 160.144C388.367 156.118 376.852 154.83 365.459 154.053C349.263 152.947 332.168 152.99 317.95 160.757C310.305 164.93 303.956 171.081 297.823 177.267C289.531 185.613 281.238 194.434 276.824 205.346C273.775 212.88 272.73 221.044 271.805 229.114C271.244 233.995 270.726 239.04 272.116 243.749C273.084 247.006 274.906 249.935 276.133 253.106C278.172 258.376 278.491 264.13 279.277 269.728C281.021 282.1 285.061 294.038 291.189 304.926C292.485 307.233 294.143 309.686 296.726 310.274C299.309 310.861 302.41 308.01 301.045 305.764" stroke="black" stroke-miterlimit="10"/>
<path d="M206.925 385.888C210.259 395.055 218.638 401.275 226.585 406.943L247.316 421.734C252.828 425.665 258.485 429.743 262.07 435.479C256.827 437.466 254.434 444.205 256.153 449.544C257.872 454.884 262.804 458.711 268.177 460.439C273.55 462.167 279.251 462.106 284.857 461.787C291.293 461.433 298.03 460.655 303.343 457L291.673 449.812C288.598 447.903 285.065 444.862 286.188 441.432L298.497 441.311C299.792 441.311 301.2 441.25 302.228 440.447C303.256 439.643 303.611 438.408 304.042 437.233C305.873 432.482 308.997 428.339 313.061 425.272C317.125 422.206 321.967 420.34 327.037 419.885C330.077 419.66 333.576 419.79 335.675 417.526C337.04 416.023 337.333 413.863 337.575 411.85C338.033 408.014 338.482 404.074 337.722 400.316C336.962 396.558 334.768 392.826 331.244 391.244C328.652 390.069 325.655 390.182 322.822 389.802C309.787 388.074 300.751 376.255 293.755 365.118C286.758 353.982 279.251 341.662 266.778 337.515C262.883 336.349 258.845 335.729 254.78 335.675C245.788 335.303 236.528 336.037 228.339 339.77C213.075 346.725 200.982 369.576 206.925 385.888Z" fill="#20B1F0"/>
<path opacity="0.1" d="M457.462 282.671L441.05 254.212C436.872 259.378 432.083 264.02 426.789 268.035C426.546 268.277 426.253 268.465 425.931 268.584C425.609 268.703 425.265 268.752 424.923 268.726C424.223 268.553 423.835 267.81 423.558 267.137C421.88 263.094 420.64 258.882 419.861 254.575C418.448 257.409 416.402 259.881 413.881 261.799C411.36 263.716 408.432 265.028 405.323 265.633V250.082C393.973 256.052 389.965 269.91 383.884 281.185C382.959 282.912 381.862 284.684 380.083 285.504C378.608 286.015 377.03 286.158 375.488 285.919L361.667 284.891C361.084 289.807 359.906 294.635 358.16 299.267C353.995 292.859 348.216 287.66 341.404 284.196C334.593 280.732 326.988 279.124 319.358 279.534C311.817 280.035 303.3 283.785 301.831 291.206L301.097 290.394C302.488 292.649 299.369 295.5 296.778 294.913C294.186 294.325 292.537 291.872 291.241 289.565C285.129 278.665 281.107 266.719 279.381 254.341C278.595 248.743 278.275 242.989 276.237 237.719C275.01 234.548 273.187 231.619 272.22 228.362C272.22 228.25 272.159 228.146 272.134 228.034C272.056 228.682 271.978 229.33 271.909 229.978C271.348 234.868 270.829 239.905 272.22 244.665C273.187 247.922 275.01 250.851 276.237 254.013C278.275 259.292 278.595 265.037 279.381 270.644C281.105 283.019 285.127 294.963 291.241 305.859C292.537 308.166 294.195 310.628 296.778 311.216C299.361 311.803 302.462 308.952 301.097 306.697L301.831 307.501C303.3 300.088 311.817 296.33 319.358 295.837C326.988 295.423 334.593 297.029 341.405 300.492C348.217 303.955 353.996 309.153 358.16 315.562C359.907 310.932 361.085 306.108 361.667 301.194L375.488 302.213C377.03 302.455 378.608 302.312 380.083 301.799C381.862 301.004 382.959 299.207 383.884 297.479C389.93 286.178 393.973 272.329 405.323 266.376V281.928C408.432 281.322 411.36 280.01 413.881 278.093C416.402 276.175 418.448 273.704 419.861 270.869C420.642 275.176 421.881 279.387 423.558 283.431C423.835 284.096 424.223 284.848 424.923 285.012C425.265 285.041 425.609 284.995 425.931 284.877C426.253 284.759 426.546 284.572 426.789 284.329C432.083 280.314 436.872 275.673 441.05 270.506L457.462 298.965C463.381 283.863 465.817 267.621 464.589 251.447C463.795 262.154 461.392 272.68 457.462 282.671Z" fill="black"/>
</g>
<defs>
<clipPath id="clip0_51_72">
<rect width="945" height="701" fill="white" transform="translate(-181)"/>
</clipPath>
</defs>
</svg>
