<svg width="110" height="111" viewBox="0 0 110 111" fill="none" xmlns="http://www.w3.org/2000/svg">
<path d="M27.5 7.375H34.375C38.1777 7.375 41.25 10.4473 41.25 14.25V21.125H20.625V14.25C20.625 10.4473 23.6973 7.375 27.5 7.375ZM41.25 28V96.75C41.25 100.553 38.1777 103.625 34.375 103.625H6.875C3.07227 103.625 0 100.553 0 96.75V84.0527C0 76.6191 2.01953 69.3145 5.84375 62.9336C8.78711 58.0352 10.6777 52.5781 11.3867 46.9062L12.998 34.0156C13.4277 30.5781 16.3496 28 19.8301 28H41.25ZM90.1914 28C93.6504 28 96.5938 30.5781 97.0234 34.0156L98.6133 46.9062C99.3223 52.5781 101.213 58.0352 104.156 62.9336C107.98 69.3145 110 76.6191 110 84.0527V96.75C110 100.553 106.928 103.625 103.125 103.625H75.625C71.8223 103.625 68.75 100.553 68.75 96.75V28H90.1914ZM68.75 14.25C68.75 10.4473 71.8223 7.375 75.625 7.375H82.5C86.3027 7.375 89.375 10.4473 89.375 14.25V21.125H68.75V14.25ZM61.875 28V62.375H48.125V28H61.875Z" fill="white"/>
</svg>
